<?xml version="1.0" encoding="utf-8"?>
<!-- Generator: Adobe Illustrator 21.1.0, SVG Export Plug-In . SVG Version: 6.00 Build 0)  -->
<svg version="1.1" xmlns="http://www.w3.org/2000/svg" xmlns:xlink="http://www.w3.org/1999/xlink" x="0px" y="0px"
	 viewBox="0 0 500 500" style="enable-background:new 0 0 500 500;" xml:space="preserve">
<style type="text/css">
	.st0{display:none;}
	.st1{display:inline;stroke:#FFFFFF;stroke-miterlimit:10;}
	.st2{fill:#231F20;}
	.st3{display:inline;}
	.st4{fill:#020202;}
	.st5{fill:#020202;stroke:#FFFFFF;stroke-width:0.75;stroke-miterlimit:10;}
	.st6{stroke:#FFFFFF;stroke-width:0.5;stroke-miterlimit:10;}
	.st7{fill:#FFFFFF;}
	.st8{display:inline;fill:#FFFFFF;}
	.st9{fill:none;}
	.st10{fill:none;stroke:#000000;stroke-miterlimit:10;}
	.st11{font-family:'TimesNewRomanPSMT';}
	.st12{font-size:10.027px;}
	.st13{fill:#00FF00;}
	.st14{fill:#FFFF00;}
	.st15{fill:#FF0000;}
	.st16{fill:none;stroke:#000000;stroke-width:0.75;stroke-miterlimit:10;}
	.st17{fill:#FFFFFF;stroke:#000000;stroke-miterlimit:10;}
	.st18{font-family:'HACKED';}
	.st19{font-size:21.1963px;}
	.st20{font-family:'VCROSDMono';}
	.st21{font-size:30px;}
	.st22{stroke:#000000;stroke-miterlimit:10;}
	.st23{font-family:'KaiTi';}
	.st24{font-size:18.0535px;}
</style>
<g id="Layer_3" class="st0">
	<rect x="38" y="31.9" class="st1" width="427" height="383.5"/>
</g>
<g id="svg2" inkscape:version="0.48.1 " sodipodi:docname="Chinese Dragon - Copia.svg" xmlns:cc="http://creativecommons.org/ns#" xmlns:dc="http://purl.org/dc/elements/1.1/" xmlns:inkscape="http://www.inkscape.org/namespaces/inkscape" xmlns:rdf="http://www.w3.org/1999/02/22-rdf-syntax-ns#" xmlns:sodipodi="http://sodipodi.sourceforge.net/DTD/sodipodi-0.dtd" xmlns:svg="http://www.w3.org/2000/svg">
	<g>
		<polygon class="st2" points="158.1,343.6 215.7,343.6 216.2,340.5 159.6,340.5 		"/>
		<polygon class="st2" points="468.6,343.6 476,343.6 476,340.5 465.1,340.5 		"/>
		<polygon class="st2" points="94,340.5 37.5,340.5 37.5,343.6 91.5,343.6 		"/>
		<polygon class="st2" points="344.4,343.6 402,343.6 399.5,340.5 342.9,340.5 		"/>
		<polygon class="st2" points="406.5,343.6 464.1,343.6 460.6,340.5 404,340.5 		"/>
		<polygon class="st2" points="96,343.6 153.6,343.6 155.1,340.5 98.5,340.5 		"/>
		<polygon class="st2" points="282.3,343.6 339.9,343.6 338.4,340.5 281.8,340.5 		"/>
		<polygon class="st2" points="220.2,343.6 277.8,343.6 277.3,340.5 220.7,340.5 		"/>
		<polygon class="st2" points="277.2,313.9 326,313.9 325,311.6 276.9,311.6 		"/>
		<polygon class="st2" points="172,313.9 220.8,313.9 221.1,311.6 173,311.6 		"/>
		<polygon class="st2" points="66.8,313.9 115.5,313.9 117.3,311.6 69.2,311.6 		"/>
		<polygon class="st2" points="329.9,313.9 378.6,313.9 376.8,311.6 328.8,311.6 		"/>
		<polygon class="st2" points="435.1,313.9 476,313.9 476,311.6 432.6,311.6 		"/>
		<polygon class="st2" points="119.4,313.9 168.1,313.9 169.2,311.6 121.2,311.6 		"/>
		<polygon class="st2" points="382.5,313.9 431.2,313.9 428.7,311.6 380.7,311.6 		"/>
		<polygon class="st2" points="224.6,313.9 273.4,313.9 273,311.6 224.9,311.6 		"/>
		<polygon class="st2" points="65.4,311.6 37.5,311.6 37.5,313.9 62.9,313.9 		"/>
		<polygon class="st2" points="182.2,292 224.5,292 224.8,290.3 183,290.3 		"/>
		<polygon class="st2" points="44.4,290.3 37.5,290.3 37.5,292 41.9,292 		"/>
		<polygon class="st2" points="319.1,292 361.4,292 360.1,290.3 318.3,290.3 		"/>
		<polygon class="st2" points="136.6,292 178.9,292 179.7,290.3 137.9,290.3 		"/>
		<polygon class="st2" points="45.3,292 87.6,292 89.5,290.3 47.7,290.3 		"/>
		<polygon class="st2" points="227.8,292 270.1,292 269.9,290.3 228.1,290.3 		"/>
		<polygon class="st2" points="456.1,292 476,292 476,290.3 453.6,290.3 		"/>
		<polygon class="st2" points="364.8,292 407.1,292 405.2,290.3 363.4,290.3 		"/>
		<polygon class="st2" points="273.5,292 315.8,292 315,290.3 273.2,290.3 		"/>
		<polygon class="st2" points="450.3,290.3 408.5,290.3 410.4,292 452.7,292 		"/>
		<polygon class="st2" points="90.9,292 133.2,292 134.6,290.3 92.8,290.3 		"/>
		<polygon class="st2" points="270.6,275.2 308,275.2 307.4,273.9 270.4,273.9 		"/>
		<polygon class="st2" points="230.3,275.2 267.7,275.2 267.5,273.9 230.5,273.9 		"/>
		<polygon class="st2" points="351.2,275.2 388.6,275.2 387.1,273.9 350.2,273.9 		"/>
		<polygon class="st2" points="190,275.2 227.4,275.2 227.6,273.9 190.6,273.9 		"/>
		<polygon class="st2" points="149.7,275.2 187.1,275.2 187.7,273.9 150.7,273.9 		"/>
		<polygon class="st2" points="431.9,275.2 469.2,275.2 466.9,273.9 430,273.9 		"/>
		<polygon class="st2" points="68,273.9 37.5,273.9 37.5,275.2 66.1,275.2 		"/>
		<polygon class="st2" points="109.4,275.2 146.7,275.2 147.8,273.9 110.8,273.9 		"/>
		<polygon class="st2" points="69.1,275.2 106.4,275.2 107.9,273.9 71,273.9 		"/>
		<polygon class="st2" points="472.2,275.2 476,275.2 476,273.9 469.8,273.9 		"/>
		<polygon class="st2" points="427,273.9 390.1,273.9 391.6,275.2 428.9,275.2 		"/>
		<polygon class="st2" points="310.9,275.2 348.3,275.2 347.3,273.9 310.3,273.9 		"/>
		<polygon class="st2" points="51.1,260.9 37.5,260.9 37.5,261.9 49.2,261.9 		"/>
		<polygon class="st2" points="448.8,261.9 476,261.9 476,260.9 446.9,260.9 		"/>
		<polygon class="st2" points="87.9,261.9 121.4,261.9 122.6,260.9 89.4,260.9 		"/>
		<polygon class="st2" points="51.8,261.9 85.3,261.9 86.8,260.9 53.7,260.9 		"/>
		<polygon class="st2" points="412.7,261.9 446.2,261.9 444.3,260.9 411.2,260.9 		"/>
		<polygon class="st2" points="268.4,261.9 301.8,261.9 301.3,260.9 268.2,260.9 		"/>
		<polygon class="st2" points="124,261.9 157.4,261.9 158.3,260.9 125.2,260.9 		"/>
		<polygon class="st2" points="340.5,261.9 374,261.9 372.8,260.9 339.7,260.9 		"/>
		<polygon class="st2" points="304.5,261.9 337.9,261.9 337.1,260.9 303.9,260.9 		"/>
		<polygon class="st2" points="232.3,261.9 265.7,261.9 265.6,260.9 232.4,260.9 		"/>
		<polygon class="st2" points="160.1,261.9 193.5,261.9 194.1,260.9 160.9,260.9 		"/>
		<polygon class="st2" points="196.2,261.9 229.6,261.9 229.8,260.9 196.7,260.9 		"/>
		<polygon class="st2" points="408.6,260.9 375.4,260.9 376.6,261.9 410.1,261.9 		"/>
		<polygon class="st2" points="233.9,251.2 264.1,251.2 264,250.3 234,250.3 		"/>
		<polygon class="st2" points="462.5,251.2 476,251.2 476,250.3 460.7,250.3 		"/>
		<polygon class="st2" points="70.5,251.2 100.8,251.2 102.1,250.3 72,250.3 		"/>
		<polygon class="st2" points="168.5,251.2 198.8,251.2 199.2,250.3 169.2,250.3 		"/>
		<polygon class="st2" points="37.9,251.2 68.1,251.2 69.7,250.3 39.6,250.3 		"/>
		<polygon class="st2" points="103.2,251.2 133.5,251.2 134.4,250.3 104.4,250.3 		"/>
		<polygon class="st2" points="299.2,251.2 329.5,251.2 328.8,250.3 298.8,250.3 		"/>
		<polygon class="st2" points="135.9,251.2 166.1,251.2 166.8,250.3 136.8,250.3 		"/>
		<polygon class="st2" points="201.2,251.2 231.5,251.2 231.6,250.3 201.6,250.3 		"/>
		<polygon class="st2" points="266.5,251.2 296.8,251.2 296.4,250.3 266.4,250.3 		"/>
		<polygon class="st2" points="331.9,251.2 362.1,251.2 361.2,250.3 331.2,250.3 		"/>
		<polygon class="st2" points="429.9,251.2 460.1,251.2 458.3,250.3 428.3,250.3 		"/>
		<polygon class="st2" points="397.2,251.2 427.5,251.2 426,250.3 395.9,250.3 		"/>
		<polygon class="st2" points="393.6,250.3 363.6,250.3 364.5,251.2 394.8,251.2 		"/>
		<polygon class="st2" points="175.5,242.3 203.1,242.3 203.5,241.6 176.1,241.6 		"/>
		<polygon class="st2" points="115.8,242.3 143.5,242.3 144.3,241.6 116.8,241.6 		"/>
		<polygon class="st2" points="444.1,242.3 471.7,242.3 470,241.6 442.5,241.6 		"/>
		<polygon class="st2" points="86,242.3 113.6,242.3 114.7,241.6 87.2,241.6 		"/>
		<polygon class="st2" points="265,242.3 292.7,242.3 292.3,241.6 264.9,241.6 		"/>
		<polygon class="st2" points="381.2,241.6 353.7,241.6 354.5,242.3 382.2,242.3 		"/>
		<polygon class="st2" points="56.1,242.3 83.8,242.3 85.1,241.6 57.6,241.6 		"/>
		<polygon class="st2" points="294.9,242.3 322.5,242.3 321.9,241.6 294.5,241.6 		"/>
		<polygon class="st2" points="384.4,242.3 412,242.3 410.8,241.6 383.3,241.6 		"/>
		<polygon class="st2" points="205.3,242.3 233,242.3 233.1,241.6 205.7,241.6 		"/>
		<polygon class="st2" points="473.9,242.3 476,242.3 476,241.6 472.1,241.6 		"/>
		<polygon class="st2" points="145.7,242.3 173.3,242.3 173.9,241.6 146.5,241.6 		"/>
		<polygon class="st2" points="55.5,241.6 37.5,241.6 37.5,242.3 53.9,242.3 		"/>
		<polygon class="st2" points="235.2,242.3 262.8,242.3 262.7,241.6 235.3,241.6 		"/>
		<polygon class="st2" points="324.7,242.3 352.3,242.3 351.5,241.6 324.1,241.6 		"/>
		<polygon class="st2" points="414.2,242.3 441.9,242.3 440.4,241.6 412.9,241.6 		"/>
		<polygon class="st2" points="428.5,234.9 454,234.9 452.5,234.2 427.2,234.2 		"/>
		<polygon class="st2" points="44,234.9 69.5,234.9 70.8,234.2 45.5,234.2 		"/>
		<polygon class="st2" points="456,234.9 476,234.9 476,234.2 454.5,234.2 		"/>
		<polygon class="st2" points="71.5,234.9 96.9,234.9 98,234.2 72.8,234.2 		"/>
		<polygon class="st2" points="370.7,234.2 345.4,234.2 346.1,234.9 371.6,234.9 		"/>
		<polygon class="st2" points="318.7,234.9 344.1,234.9 343.4,234.2 318.2,234.2 		"/>
		<polygon class="st2" points="208.8,234.9 234.3,234.9 234.4,234.2 209.1,234.2 		"/>
		<polygon class="st2" points="181.4,234.9 206.8,234.9 207.1,234.2 181.8,234.2 		"/>
		<polygon class="st2" points="236.3,234.9 261.7,234.9 261.6,234.2 236.4,234.2 		"/>
		<polygon class="st2" points="126.4,234.9 151.9,234.9 152.6,234.2 127.3,234.2 		"/>
		<polygon class="st2" points="153.9,234.9 179.3,234.9 179.8,234.2 154.6,234.2 		"/>
		<polygon class="st2" points="263.7,234.9 289.2,234.9 288.9,234.2 263.6,234.2 		"/>
		<polygon class="st2" points="373.6,234.9 399,234.9 398,234.2 372.7,234.2 		"/>
		<polygon class="st2" points="99,234.9 124.4,234.9 125.3,234.2 100,234.2 		"/>
		<polygon class="st2" points="291.2,234.9 316.6,234.9 316.2,234.2 290.9,234.2 		"/>
		<polygon class="st2" points="43.5,234.2 37.5,234.2 37.5,234.9 42,234.9 		"/>
		<polygon class="st2" points="401,234.9 426.5,234.9 425.2,234.2 400,234.2 		"/>
		<polygon class="st2" points="466.9,229.5 476,232.9 476,232.1 468.8,229.5 		"/>
		<polygon class="st2" points="472.1,241.6 456,234.9 454.5,234.2 443,229.5 441.2,229.5 452.5,234.2 454,234.9 470,241.6 
			471.7,242.3 476,244.1 476,243.2 473.9,242.3 		"/>
		<polygon class="st2" points="460.7,250.3 444.1,242.3 442.5,241.6 428.5,234.9 427.2,234.2 417.3,229.5 415.4,229.5 425.2,234.2 
			426.5,234.9 440.4,241.6 441.9,242.3 458.3,250.3 460.1,251.2 476,258.9 476,257.7 462.5,251.2 		"/>
		<polygon class="st2" points="469.8,273.9 448.8,261.9 446.9,260.9 429.9,251.2 428.3,250.3 414.2,242.3 412.9,241.6 401,234.9 
			400,234.2 391.6,229.5 389.7,229.5 398,234.2 399,234.9 410.8,241.6 412,242.3 426,250.3 427.5,251.2 444.3,260.9 446.2,261.9 
			466.9,273.9 469.2,275.2 476,279.1 476,277.4 472.2,275.2 		"/>
		<polygon class="st2" points="453.6,290.3 431.9,275.2 430,273.9 412.7,261.9 411.2,260.9 397.2,251.2 395.9,250.3 384.4,242.3 
			383.3,241.6 373.6,234.9 372.7,234.2 365.8,229.5 363.9,229.5 370.7,234.2 371.6,234.9 381.2,241.6 382.2,242.3 393.6,250.3 
			394.8,251.2 408.6,260.9 410.1,261.9 427,273.9 428.9,275.2 450.3,290.3 452.7,292 476,308.3 476,305.8 456.1,292 		"/>
		<polygon class="st2" points="465.1,340.5 435.1,313.9 432.6,311.6 410.4,292 408.5,290.3 391.6,275.2 390.1,273.9 376.6,261.9 
			375.4,260.9 364.5,251.2 363.6,250.3 354.5,242.3 353.7,241.6 346.1,234.9 345.4,234.2 340.1,229.5 338.2,229.5 343.4,234.2 
			344.1,234.9 351.5,241.6 352.3,242.3 361.2,250.3 362.1,251.2 372.8,260.9 374,261.9 387.1,273.9 388.6,275.2 405.2,290.3 
			407.1,292 428.7,311.6 431.2,313.9 460.6,340.5 464.1,343.6 476,354.5 476,350.2 468.6,343.6 		"/>
		<polygon class="st2" points="404,340.5 382.5,313.9 380.7,311.6 364.8,292 363.4,290.3 351.2,275.2 350.2,273.9 340.5,261.9 
			339.7,260.9 331.9,251.2 331.2,250.3 324.7,242.3 324.1,241.6 318.7,234.9 318.2,234.2 314.3,229.5 312.4,229.5 316.2,234.2 
			316.6,234.9 321.9,241.6 322.5,242.3 328.8,250.3 329.5,251.2 337.1,260.9 337.9,261.9 347.3,273.9 348.3,275.2 360.1,290.3 
			361.4,292 376.8,311.6 378.6,313.9 399.5,340.5 402,343.6 421.3,368.3 426.4,368.3 406.5,343.6 		"/>
		<polygon class="st2" points="342.9,340.5 329.9,313.9 328.8,311.6 319.1,292 318.3,290.3 310.9,275.2 310.3,273.9 304.5,261.9 
			303.9,260.9 299.2,251.2 298.8,250.3 294.9,242.3 294.5,241.6 291.2,234.9 290.9,234.2 288.6,229.5 286.7,229.5 288.9,234.2 
			289.2,234.9 292.3,241.6 292.7,242.3 296.4,250.3 296.8,251.2 301.3,260.9 301.8,261.9 307.4,273.9 308,275.2 315,290.3 
			315.8,292 325,311.6 326,313.9 338.4,340.5 339.9,343.6 351.4,368.3 356.5,368.3 344.4,343.6 		"/>
		<polygon class="st2" points="281.8,340.5 277.2,313.9 276.9,311.6 273.5,292 273.2,290.3 270.6,275.2 270.4,273.9 268.4,261.9 
			268.2,260.9 266.5,251.2 266.4,250.3 265,242.3 264.9,241.6 263.7,234.9 263.6,234.2 262.8,229.5 260.9,229.5 261.6,234.2 
			261.7,234.9 262.7,241.6 262.8,242.3 264,250.3 264.1,251.2 265.6,260.9 265.7,261.9 267.5,273.9 267.7,275.2 269.9,290.3 
			270.1,292 273,311.6 273.4,313.9 277.3,340.5 277.8,343.6 281.4,368.3 286.5,368.3 282.3,343.6 		"/>
		<polygon class="st2" points="220.7,340.5 224.6,313.9 224.9,311.6 227.8,292 228.1,290.3 230.3,275.2 230.5,273.9 232.3,261.9 
			232.4,260.9 233.9,251.2 234,250.3 235.2,242.3 235.3,241.6 236.3,234.9 236.4,234.2 237.1,229.5 235.2,229.5 234.4,234.2 
			234.3,234.9 233.1,241.6 233,242.3 231.6,250.3 231.5,251.2 229.8,260.9 229.6,261.9 227.6,273.9 227.4,275.2 224.8,290.3 
			224.5,292 221.1,311.6 220.8,313.9 216.2,340.5 215.7,343.6 211.5,368.3 216.6,368.3 220.2,343.6 		"/>
		<polygon class="st2" points="159.6,340.5 172,313.9 173,311.6 182.2,292 183,290.3 190,275.2 190.6,273.9 196.2,261.9 
			196.7,260.9 201.2,251.2 201.6,250.3 205.3,242.3 205.7,241.6 208.8,234.9 209.1,234.2 211.3,229.5 209.4,229.5 207.1,234.2 
			206.8,234.9 203.5,241.6 203.1,242.3 199.2,250.3 198.8,251.2 194.1,260.9 193.5,261.9 187.7,273.9 187.1,275.2 179.7,290.3 
			178.9,292 169.2,311.6 168.1,313.9 155.1,340.5 153.6,343.6 141.5,368.3 146.6,368.3 158.1,343.6 		"/>
		<polygon class="st2" points="98.5,340.5 119.4,313.9 121.2,311.6 136.6,292 137.9,290.3 149.7,275.2 150.7,273.9 160.1,261.9 
			160.9,260.9 168.5,251.2 169.2,250.3 175.5,242.3 176.1,241.6 181.4,234.9 181.8,234.2 185.6,229.5 183.7,229.5 179.8,234.2 
			179.3,234.9 173.9,241.6 173.3,242.3 166.8,250.3 166.1,251.2 158.3,260.9 157.4,261.9 147.8,273.9 146.7,275.2 134.6,290.3 
			133.2,292 117.3,311.6 115.5,313.9 94,340.5 91.5,343.6 71.5,368.3 76.7,368.3 96,343.6 		"/>
		<polygon class="st2" points="69.2,311.6 90.9,292 92.8,290.3 109.4,275.2 110.8,273.9 124,261.9 125.2,260.9 135.9,251.2 
			136.8,250.3 145.7,242.3 146.5,241.6 153.9,234.9 154.6,234.2 159.8,229.5 157.9,229.5 152.6,234.2 151.9,234.9 144.3,241.6 
			143.5,242.3 134.4,250.3 133.5,251.2 122.6,260.9 121.4,261.9 107.9,273.9 106.4,275.2 89.5,290.3 87.6,292 65.4,311.6 
			62.9,313.9 37.5,336.4 37.5,340.4 66.8,313.9 		"/>
		<polygon class="st2" points="47.7,290.3 69.1,275.2 71,273.9 87.9,261.9 89.4,260.9 103.2,251.2 104.4,250.3 115.8,242.3 
			116.8,241.6 126.4,234.9 127.3,234.2 134.1,229.5 132.2,229.5 125.3,234.2 124.4,234.9 114.7,241.6 113.6,242.3 102.1,250.3 
			100.8,251.2 86.8,260.9 85.3,261.9 68,273.9 66.1,275.2 44.4,290.3 41.9,292 37.5,295 37.5,297.4 45.3,292 		"/>
		<polygon class="st2" points="53.7,260.9 70.5,251.2 72,250.3 86,242.3 87.2,241.6 99,234.9 100,234.2 108.3,229.5 106.4,229.5 
			98,234.2 96.9,234.9 85.1,241.6 83.8,242.3 69.7,250.3 68.1,251.2 51.1,260.9 49.2,261.9 37.5,268.6 37.5,270.2 51.8,261.9 		"/>
		<polygon class="st2" points="39.6,250.3 56.1,242.3 57.6,241.6 71.5,234.9 72.8,234.2 82.6,229.5 80.7,229.5 70.8,234.2 
			69.5,234.9 55.5,241.6 53.9,242.3 37.5,250.2 37.5,251.4 37.9,251.2 		"/>
		<polygon class="st2" points="45.5,234.2 56.8,229.5 55,229.5 43.5,234.2 42,234.9 37.5,236.8 37.5,237.6 44,234.9 		"/>
		<polygon class="st2" points="56.8,229.5 80.7,229.5 82.6,229.5 106.4,229.5 108.3,229.5 132.2,229.5 134.1,229.5 157.9,229.5 
			159.8,229.5 183.7,229.5 185.6,229.5 209.4,229.5 211.3,229.5 235.2,229.5 237.1,229.5 260.9,229.5 262.8,229.5 286.7,229.5 
			288.6,229.5 312.4,229.5 314.3,229.5 338.2,229.5 340.1,229.5 363.9,229.5 365.8,229.5 389.7,229.5 391.6,229.5 415.4,229.5 
			417.3,229.5 441.2,229.5 443,229.5 466.9,229.5 468.8,229.5 476,229.5 476,227 37.5,227 37.5,229.5 55,229.5 		"/>
	</g>
	<g>
		<g id="XMLID_5_">
			<g>
				<rect x="221.4" y="91.2" width="56.7" height="8.5"/>
				<path d="M278.1,99.7v-8.5c2.3,0,4.2,1.9,4.2,4.2C282.3,97.8,280.4,99.7,278.1,99.7z"/>
				<path d="M221.4,91.2v8.5h0c-2.3,0-4.2-1.9-4.2-4.2C217.1,93.2,219,91.3,221.4,91.2L221.4,91.2z"/>
			</g>
		</g>
	</g>
	<g id="XMLID_4_" class="st0">
		<g class="st3">
			<polygon points="428.3,213.5 419.7,231.3 268.1,360.5 268.1,360.5 229.9,360.5 229.9,360.5 79.8,231.3 71.1,213.5 71.1,213.4 
				71.1,149.2 71.1,149.2 79.3,134 79.3,134 141,92.9 174.5,82.7 328.4,82.7 360.7,92.8 420.1,133.8 420.1,133.8 428.3,149.4 
				428.3,213.4 			"/>
			<path d="M428.3,149.4L428.3,149.4l-8.2-15.7C425.2,137.3,428.3,143.2,428.3,149.4z"/>
			<path d="M419.7,231.3l8.6-17.8C428.3,220.4,425.1,227,419.7,231.3L419.7,231.3z"/>
			<path d="M360.7,92.8C360.7,92.8,360.7,92.8,360.7,92.8l-32.4-10.1C339.9,82.7,351.2,86.3,360.7,92.8z"/>
			<path d="M229.9,360.5l38.3,0C256.9,369.5,241.1,369.4,229.9,360.5L229.9,360.5z"/>
			<path d="M174.5,82.7L141,92.9C150.9,86.3,162.5,82.7,174.5,82.7z"/>
			<path d="M79.8,231.3L79.8,231.3c-5.4-4.3-8.6-10.9-8.6-17.8L79.8,231.3z"/>
			<path d="M79.3,134l-8.1,15.2C71.1,143.1,74.2,137.4,79.3,134z"/>
		</g>
	</g>
	<g>
		<path class="st4" d="M180.9,301.5c-1.2-0.8-1-0.9,1-0.8c1.6,0.1,1.9,0,3.1-1.7c1-1.4,1.8-1.7,3.3-1.1c2.3,1,1.7,3.7-1.1,4.7
			c-1,0.4-3.8,0.3-4.7-0.2C182.2,302.3,181.5,301.9,180.9,301.5z"/>
		<path class="st4" d="M165.1,271.4c0.8-1.6,0.8-2.1-0.4-3.7c-0.9-1.2-0.9-1.2-0.6-2.2c0.7-2.2,3.6-2.2,4.6,0c0.9,2-0.4,5.2-2.7,6.5
			C164.3,273,164.3,273,165.1,271.4L165.1,271.4z"/>
		<path class="st4" d="M203.8,306.9c1.4-1.2,1.6-2,1.2-3.8c-0.4-1.9,0-2.8,1.5-3.2c1.3-0.3,2.1,0.2,2.7,1.6c1.2,2.9-1.5,6.1-5.4,6.2
			l-0.9,0L203.8,306.9L203.8,306.9z"/>
		<path class="st4" d="M190.2,300.4c0.1-0.5,0-1.2-0.1-1.5c-0.4-0.8-2-1.8-2.9-1.7c-0.8,0-1-0.7-0.4-1.9c0.3-0.6,0.6-0.8,1.4-1
			c1.1-0.2,1.5-0.8,1.7-2.4c0.1-0.7,0.4-1.3,1-2.2c1.2-1.6,1-2.4-0.5-3.5c-0.9-0.7-1.1-1.1-1.6-2.8c-0.6-2.6-1-2.8-4.3-3.5
			c-2.6-0.5-4.4-1.2-5.4-1.9c-0.5-0.4-0.5-0.5,0-1.2c0.9-1.3,0.3-3.2-1.1-3.9c-0.6-0.3,0-1.1,1.6-2.3c1.3-1,1.6-1,2.7-0.8
			c1.2,0.2,2.5,0.8,5.1,2.3c1,0.6,1,0.6,0.6,1.6c-0.4,0.9-0.4,1.1,0.5,2.4c2.2,3.3,8,5.8,10.4,4.5c0.8-0.4,0.9-0.4,2.8,0.4
			c2.1,0.9,5,1.6,6.4,1.5c0.5,0,1.8-0.4,2.9-0.8l2.1-0.7l1.8,0.8c1.9,0.8,2.7,1.6,3.1,3c0.3,1,0,1.5-0.8,1.4
			c-0.8-0.1-2.3,0.7-2.6,1.5c-0.1,0.3-0.1,1,0,1.6l0.3,1.1l-0.7,0.1c-1.4,0.2-2.6,0-3-0.6c-0.6-0.7-2.6-1.5-5.9-2.4
			c-3.7-1-3.8-0.7-0.5,2.3c1.4,1.3,3,2.9,3.5,3.6c0.5,0.7,1.5,1.7,2.3,2.2c1.4,0.9,1.8,1.6,1.7,2.7c-0.1,0.8-1.1,2.4-1.8,2.8
			c-0.5,0.3-0.6,0.2-1.2-0.5c-1.4-1.6-3.9-1.2-4.7,0.7c-0.4,0.8-0.5,0.9-1.4,0.7c-0.6-0.1-1.2-0.2-1.5-0.3c-0.6-0.3-1-1.5-1.1-3.3
			c0-1.2-0.5-2.5-1.6-4.9c-1.7-3.8-2.4-4.3-1.9-1.3c0.8,4.6,0.1,6.6-3.2,8.4c-1.2,0.7-2.3,1.2-2.5,1.1c-0.2-0.1-0.5-0.2-0.8-0.2
			C190.1,301.3,190,301,190.2,300.4L190.2,300.4z"/>
		<path class="st4" d="M141.9,275.7l-1.7-0.4l1.5-0.5c2.1-0.7,2.3-0.9,2.9-2.8c0.7-2.4,2.2-3.3,3.9-2.3c1,0.6,1.2,1.2,0.8,2.7
			C148.6,274.8,145.1,276.4,141.9,275.7z"/>
		<path class="st4" d="M149.9,270.9c-0.3-1.5-1.5-2.2-3.3-1.8c-1.3,0.3-1.3,0.2-1.6-0.5c-0.3-1-0.1-1.8,0.8-2.4
			c0.9-0.6,1.2-1.6,0.9-3c-0.1-0.6-0.1-1.6,0.1-2.2c0.5-1.7,0.1-2.6-1.6-3.2c-1.1-0.4-1.6-0.8-2.4-1.9c-1.5-2.2-1.7-2.2-5.8-1.5
			c-4.2,0.7-6.4,0.5-5.8-0.7c0.7-1.3-0.5-3.4-2-3.4c-0.4,0-0.7-0.1-0.8-0.2c-0.1-0.3,0.7-2,1.5-3.1c1-1.5,2.2-1.8,5.8-1.5
			c1.4,0.1,3,0.3,3.6,0.3c0.7,0.1,1,0.2,1.1,0.6c0.5,2.1,2.9,3.9,6.2,4.6c3,0.7,4.1,0.5,6.3-1.2c1.8-1.3,2-1.4,3.7-1.6
			c2.8-0.3,4.3-1,6-2.5c1.2-1.1,1.7-1.4,2.8-1.6c2.3-0.5,4.7,0.4,5.6,2c0.3,0.6,0.2,0.7-0.3,0.8c-2.1,0.5-3,3.2-1.5,4.5
			c0.5,0.4,0.5,0.5-0.3,0.9c-1.1,0.7-2.3,0.9-3.1,0.6c-1.6-0.5-9.4,0.2-9.2,0.9c0,0.2,1.3,0.8,2.8,1.3c1.5,0.5,3.6,1.4,4.6,2
			c1,0.6,2.6,1.2,3.5,1.4c1.2,0.3,1.7,0.6,2,1c0.5,0.9,0.4,2.4-0.3,3.7l-0.5,0.9l-0.8-0.5c-1.8-1-4.4,0.6-4.4,2.7
			c0,0.7-0.1,0.8-0.9,1c-2.1,0.5-2.7,0-3.9-2.6c-0.9-2-5.6-6.5-6-5.8c-0.1,0.1,0.3,0.8,0.8,1.6c1.2,2,2,4.6,1.9,5.8
			c-0.2,1.4-3.1,5.1-4.3,5.4C150.2,271.9,150.1,271.9,149.9,270.9L149.9,270.9z"/>
		<path class="st4" d="M171.5,278.3c-0.1-1.5,0-1.8,0.7-2.9c1.7-2.8,6-3.4,6.7-1c0.5,1.8-0.6,2.9-3,2.8c-1.9-0.1-2.2,0.1-3.3,1.6
			l-0.9,1.2L171.5,278.3L171.5,278.3z"/>
		<path class="st4" d="M174.6,254.4c-0.8-2-1-2.1-3-2.5c-2.2-0.4-2.5-0.7-2.8-2c-0.4-1.8,1.7-3,3.8-2.2c2,0.8,3.3,3.2,2.9,5.5
			C175.4,255.3,175.1,255.6,174.6,254.4L174.6,254.4z"/>
		<path class="st4" d="M218.7,294.5c0.2-1.7-0.3-2.6-1.8-3.5c-1.7-1-2-1.4-2-2.4c0-1.8,1.3-2.6,3.2-1.7c2.6,1.1,3.5,4.7,1.9,7.3
			C218.9,295.7,218.5,295.9,218.7,294.5z"/>
		<path class="st4" d="M125.2,258.6c-0.8-1.4-1-2.6-0.6-4.2c0.8-3.1,3.9-4.8,5.7-3.1c1.3,1.2,0.4,3.1-1.9,3.9
			c-1.6,0.6-2.3,1.4-2.5,3.2l-0.2,1.1L125.2,258.6L125.2,258.6z"/>
		<path class="st4" d="M190.7,277.3c-0.5-0.4-1.2-1.2-1.6-1.8c-0.7-0.9-0.7-1.1-0.2-2.1l0.5-1.1l-2.3-3.1c-4-5.3-7.7-10.9-8.8-13.1
			c-0.6-1.2-1.3-3.3-1.6-4.6c-0.6-2.4-0.6-2.4,0.1-2.9c2.1-1.3,4.2-3.2,5-4.8c0.8-1.5,0.8-1.7,0.6-3.9c-0.2-2.4-0.5-3.4-2-7.9
			c-0.5-1.6-1.2-3.8-1.5-4.9s-1.2-3.5-1.9-5.2l-0.8-1.8l3.5-0.3c5.7-0.2,7.9-0.4,14.4-2.1c0.4-0.1,0.7-0.3,0.5,1.1
			c-0.2,1.8,0.2,2.6,0.3,3.7c0.1,3,1.5,6.5,3.6,12c3.1,7.9,3.2,8.9,2.2,11.9c-1.1,3.1-4.1,6.6-8,9.1l-1.6,1l0.4,3.4
			c0.7,6.8,1.1,7.8,5.3,13.9c2.3,3.4,3,5,2.2,5.7c-1,0.8-2.1,0.8-4.8-0.3C192.5,278.5,191.2,277.8,190.7,277.3L190.7,277.3z"/>
		<path class="st4" d="M243.9,288.3l-1-0.8l1.2,0.1c2.2,0.2,2.9,0,3.8-1.4c1.4-2.1,3.9-2.2,4.7-0.2c0.4,1.1,0,1.9-1.3,2.9
			c-1,0.8-2.2,1-4.1,0.8C245.9,289.7,245.4,289.4,243.9,288.3L243.9,288.3z"/>
		<path class="st4" d="M253.3,287.8c0.7-1.5-0.7-3.5-2.7-3.6c-1.1-0.1-1.1-0.1-1.1-0.8c0-1.2,0.5-2,1.7-2.2c1.2-0.3,1.4-0.5,1.7-2.4
			c0.1-0.8,0.5-1.6,0.9-2.1c1.2-1.6,1.1-2.4-0.4-3.6c-0.7-0.6-1.1-1.2-1.3-1.9c-1.1-3.7-1.2-3.8-5-4.6c-2.3-0.4-4.2-1.2-5.2-2
			c-0.4-0.3-0.4-0.5,0.2-1.5c0.6-1,0.6-1.2,0.1-2.1c-0.3-0.6-0.8-1.2-1.1-1.3c-0.8-0.4-0.6-0.9,1-2.2c2-1.8,3.2-1.6,7.8,0.9l3.1,1.7
			l0.1,1.6c0.2,3.4,1.8,5.7,5,7.2c2.8,1.4,4.8,1.2,6.3-0.7c0.5-0.6,0.6-0.6,1.5-0.2c2.4,1.2,5.8,1.4,7.7,0.4
			c1.7-0.8,2.7-0.8,4.5,0.1c1.6,0.8,2.7,1.9,2.9,3c0.2,0.9-0.2,1.6-0.7,1.3c-1.4-0.7-3.3,1.7-2.7,3.4c0.3,0.9,0.2,1-1.5,1
			c-0.7,0-1.4-0.3-2.8-1.1c-2.3-1.3-7.7-2.9-7.9-2.3c-0.1,0.2,0.9,1.3,2.4,2.7c1.4,1.3,3.1,3,3.8,3.8c0.7,0.9,1.6,1.7,2,1.9
			c1.2,0.6,1.8,1.4,1.7,2.5c0,1.1-0.9,2.7-1.8,3.1c-0.5,0.2-0.5,0.2-1.1-0.5c-1.3-1.6-3.6-1.3-4.6,0.6c-0.5,0.9-0.6,0.9-1.8,0.7
			c-1.7-0.3-2.2-1-2.3-3.4c0-1.1-0.4-2.6-1-3.9c-2-4.8-3-5.8-2.4-2.3c0.4,2.4,0.3,4.8-0.3,6c-0.3,0.6-1,1.2-2,1.8
			c-0.9,0.5-1.8,1.1-2,1.3C255.1,288.6,253,288.3,253.3,287.8L253.3,287.8z"/>
		<path class="st4" d="M267.1,293.6c1.3-1.2,1.4-1.7,0.9-3.6c-0.5-1.8-0.1-2.7,1.4-3.1c1.2-0.3,1.6-0.2,2.4,0.7
			c2,2.3-0.2,6.4-3.8,6.9c-0.9,0.1-1.6,0.2-1.7,0.2C266.1,294.6,266.5,294.1,267.1,293.6z"/>
		<path class="st4" d="M234.6,266c-0.3-2.6,0.8-4.9,2.8-5.9c2.6-1.3,5.4,0.5,4.3,2.7c-0.5,1.1-1.1,1.3-3.1,1.2c-1.8,0-1.9,0-3,1.7
			l-0.8,1.3L234.6,266L234.6,266z"/>
		<path class="st4" d="M239.1,166.1c1.9,0.4,3.7,0.9,3.7,0.9c2.8,0.9,5.2,2.1,7.7,3.4c12.1,6.4,17.1,11.9,22.9,24.9
			c3.5,8,5.6,11.7,7.5,13.4c1.2,1,3.7,2.2,5.4,2.4c3.9,0.6,9.8-0.3,12-1.8c1.8-1.2,2.4-5.2,1.3-8.6c-1.4-4.3-4.4-8.8-13.3-19.7
			c-9.1-11.1-12.1-15.7-15-23.2c-3.1-8-3.8-14.7-2.3-23.1c1-5.5,2.9-9.3,6.3-12.7c5.2-5.2,11.4-7.3,21.3-7c4.8,0.1,11.8,1,11.9,1.5
			c0,0.2,0.3,1.7,0.6,3.5c0.6,3.6,2.5,8.7,4.3,11.2c0.6,0.8,2,2.5,3.2,3.8l2.2,2.3l-1.3-0.4c-2.3-0.8-2.6-1-4.1-3.4
			c-2.3-3.7-4.1-5.5-6.7-6.7c-1.8-0.9-2.5-1.1-3.8-1.2l-1.7-0.1l2.1,2c3.2,3.1,3.9,4.2,4.3,6.9c0.2,1.2,0.3,3.3,0.3,4.6
			s0.1,2.8,0.2,3.4c0.1,0.6,0.2,1.1,0.1,1.1c-0.1,0-1.7-0.4-3.5-1.1c-4.5-1.5-5.5-1.6-6.7-0.8c-1.9,1.2-2.2,1.9-2,4.6
			c0.3,5.4,3.3,10.6,12.7,22.2c6.3,7.8,8.1,10.1,10.6,14.1c7.1,11.1,9.4,21.5,7,31.3c-1.9,7.9-4.6,12.4-9.6,16.2
			c-5.1,3.8-10.5,5.7-18.1,6.4c-3,0.3-8.3,0.4-8.7,0.2c-0.6-0.3,0.5-1.2,2-1.6c1.9-0.5,2.6-1.1,3.6-3c0.5-1,0.6-1.6,0.5-2.6
			c-0.2-1.4-1.2-3.4-1.9-3.8c-0.3-0.2-0.3-0.4,0.1-1.2c0.6-1.3,0.5-4-0.2-5.2c-0.7-1.2-2.4-2.3-3.9-2.7c-0.8-0.2-1.5-0.5-2.1-1
			c-0.5-0.4-2.1-1.3-3.5-2l-2.6-1.3l-0.4-1.2c-0.9-2.5-3.5-4.8-5.7-5.1c-0.6-0.1-0.6-0.2-0.5-1.4c0.2-1.9,0-2.7-1.2-4
			c-1.4-1.6-2.5-2.1-4.4-1.9c-2.1,0.2-2.2,0.3-1,0.9c1.6,0.8,3.3,2.2,3.5,2.9c0.2,0.5,0,1.3-0.6,2.8c-0.6,1.6-0.8,2.6-0.8,3.8
			c0,1.8-0.7,3.4-1.8,3.8c-1.4,0.6-3.2-2.2-2.9-4.3c0.4-2.4-1.7-5.1-5.2-6.7c-1.3-0.6-2.1-1.1-2.2-1.3c-0.1-0.2,0.1-1.1,0.4-1.9
			l0.6-1.5l-0.8,0.3c-2.6,1.1-3.7,3.8-2.6,6.4c0.3,0.8,0.5,0.9,2.1,1.5c0.9,0.3,2.1,0.8,2.6,1c1,0.4,1,0.3,0.1,2.3
			c-0.6,1.3,1.1,7.9,2.2,8.4c0.6,0.3,0.7,0.9,0.4,2c-0.4,1.5-1.2,1.3-2.3-0.4c-0.7-1.1-1.3-1.6-3.3-2.9c-3.1-2-3.4-2.3-3.9-4.1
			c-0.4-1.4-0.4-1.8,0.5-4.1c0.2-0.6,0.2-0.6-0.9,0c-0.6,0.3-1.3,0.9-1.5,1.2c-0.4,0.9-0.6,0.7-1.4-1.3c-1.2-3-3.2-6.9-4.3-8.5
			c-2.8-4-9.2-8-14.3-8.3c-8.1-0.5-10.9,7.5-25.6,19.5c-10.3,8.4-20.1,8.5-31.5,9.2c-7.3,0.5-22.3-2.1-33.5-7.3
			c-20.4-9.5-22.2-14.3-25.9-20.3c-4.1-6.7-3.2-13.8-3.2-18.8c0.1-5.3,0.8-9.3,1.5-12.8c0.3-1.6,1.6-9.6,5.2-18.4
			c1.4-3.4,2.2-5.8,5.1-11.4c2.1-4.1,4-6.2,6.3-8.9c2.2-2.5,8.5-7.8,8.9-7.5c0.4,0.3-4.9,6.4-7.6,11.4c-2.5,4.7-3.9,8.9-4.4,11.1
			c-1.5,6.9-1.7,10.3-2,11.9c-1.1,7.9-0.6,8.9-1,15.6c-0.3,4.8-0.2,6.7,1.2,9.2c2.1,3.7,4.5,10.5,11,14.6c7,4.4,12.3,5.6,19.8,6.9
			c12.2,2.2,20.6,2.1,29.9-2.2c9-4.1,10.7-12,22.6-19.3C223.8,163.9,236.6,165.6,239.1,166.1z"/>
		<path class="st4" d="M281.6,280.9c-0.1-1.9-0.1-1.9-2.6-3.6c-0.5-0.3-1-0.9-1.1-1.3c-0.8-2.2,1.6-3.6,3.6-2.1
			c2.5,1.8,2.8,5.9,0.6,8.3C281.8,282.6,281.7,282.5,281.6,280.9z"/>
		<path class="st4" d="M256.6,267.3c-1.9-1.6-2.7-3.2-2.8-6.2c-0.1-1,0.1-1.4,0.9-2.7c1-1.5,1-1.7,1.1-4.7c0.1-5.6-0.3-7.4-2.5-10.8
			c-1.4-2.2-1.4-2.2-0.1-4.2c0.9-1.3,4.6-6,7.1-9c0.3-0.3,0.6-0.4,1-0.2c1.7,0.8,2.7-0.4,5-6c0.9-2.3,2-4.6,2.4-5.1
			c1.7-2.5,6.4-4.7,8.6-4c1.6,0.5,2.4,0.3,3.3-0.6c0.7-0.7,0.8-0.7,2-0.4c1.1,0.4,3.8,1.9,4.9,2.8c0.4,0.3,0.4,0.5-0.1,1.2
			c-1.4,1.9-3.7,2.8-6.5,2.3c-2.2-0.4-2.6-0.6-3.7-2.7c-0.9-1.7-1.1-1.7-1.1,0c-0.1,2.5,1.1,4,4.1,5.2c2.5,1,4.8,1.3,6.1,0.8
			c1.1-0.4,1.5-0.3,2,0.5c0.3,0.6,0.3,0.6-0.6,1.2c-1.4,0.9-3.6,1.2-5.1,0.6c-3.3-1.2-4.6-1.2-6.7-0.2c-1.4,0.7-2,1.7-2.4,4.1
			c-0.5,2.5-0.4,2.5,1.1,0.9c2.6-2.7,3.8-2.9,7-1.2c1.7,0.9,2,0.9,3.3,0.8c1.8-0.2,1.7-0.2,2.3,0.8c0.6,1.1,0.3,1.4-1.7,3
			c-1.5,1.1-1.9,1.3-3,1.3c-2.2,0-4,1.4-4.4,3.7c-0.2,1-0.3,1.1-2.3,2.4c-3,2-4.3,3.3-5.7,5.7c-2.3,3.9-5.3,13.5-5.8,18.1
			c-0.2,2.5-0.3,2.6-1.1,3.4c-0.7,0.6-1.1,0.8-2,0.8C259.8,269,257.6,268.2,256.6,267.3L256.6,267.3z"/>
		<path class="st4" d="M343,265.8c-2.9-0.8-4.9-3.8-4-6.1c0.7-1.5,2.8-1.7,4.1-0.3c0.4,0.4,0.4,0.9,0.3,2.4c-0.2,2,0,2.5,1.7,3.4
			c0.5,0.3,0.9,0.6,0.9,0.7C346,266.3,344.3,266.2,343,265.8L343,265.8z"/>
		<path class="st4" d="M369.2,260.5l0.3-1.7l-1-0.9c-1.9-1.7-2-1.9-2-2.8c0.1-1.9,2.3-2.7,3.9-1.4c2.2,1.8,2.1,5.4-0.3,7.5l-1.2,1.1
			L369.2,260.5L369.2,260.5z"/>
		<path class="st4" d="M336.9,257.9c-1.8-2.4-1.7-3.4,1.4-7c1.1-1.3,2.2-2.8,2.6-3.4c1.1-1.7,1.8-1.9,5-0.9c3.1,0.9,3.5,0.9,5.6-0.6
			c2.5-1.8,2.8-6.4,0.6-8.4l-1.1-1l0.4-1.3c0.6-1.9,0.6-3.3,0-4.7c-0.6-1.5-0.6-2.2,0.1-3.5c0.7-1.3,2-2.2,3.3-2.5
			c1.5-0.4,1.9-0.1,1.8,1.2c-0.1,0.9,0.1,1.2,0.8,1.9c0.8,0.7,1,0.8,2.3,0.8l1.4,0l-0.1,1.3c-0.1,1-0.2,1.4-0.9,2.1
			c-0.5,0.4-1.1,1.3-1.5,1.8c-0.7,1.1-2.9,6.1-3,6.5c0,0.2,0.6-0.2,1.4-0.8c2.4-1.9,4.9-3.5,6.4-4.2c0.8-0.4,2-1.2,2.7-1.8
			c1-0.9,1.5-1.2,2.1-1.1c1.1,0.1,2.6,0.8,3.3,1.7c0.7,0.9,0.6,1.3-0.2,1.6c-1.1,0.4-1.6,2.1-1,3.2c0.4,0.7,1.5,1.5,2.2,1.7
			c0.2,0.1-0.7,2.1-1.1,2.4c-0.3,0.3-1.3,0.4-3.6,0.4c-3.6,0-8.7,1-8.8,1.7c0,0.3,0.3,0.4,1.9,0.3c2.4-0.1,5.6,0.6,6.8,1.4
			c0.5,0.3,1.2,1.3,1.7,2.2c0.4,0.8,0.9,1.7,1.1,1.9c0.3,0.3,0.4,1.5,0.1,2.1c-0.1,0.3-0.4,0.3-1.2,0c-1.7-0.6-3.5,0.6-3.6,2.4
			c0,0.5-0.1,0.6-0.5,0.5c-0.3-0.1-0.8-0.3-1.3-0.4c-0.8-0.2-1.3-0.9-1.2-1.7c0-0.7-0.8-1.3-2.4-1.9c-0.8-0.3-1.8-0.8-2.2-1.1
			c-0.9-0.7-1.8-1.3-2.3-1.3c-0.2,0-0.8,0.4-1.5,0.8c-1,0.7-1.5,0.9-3.2,1c-1.1,0.1-2.3,0.3-2.6,0.4c-0.6,0.2-1.7,2-1.8,2.8
			c-0.1,1-1.4,3.7-2.2,4.5l-0.9,0.8l-0.8-0.6c-0.4-0.3-1-0.7-1.3-0.8c-0.7-0.3-2.5,0.2-2.9,0.7C338.5,259.6,338.1,259.4,336.9,257.9
			L336.9,257.9z"/>
		<path class="st4" d="M317.9,246.8c-3.4-0.7-4.2-1.2-4.7-3.7c-0.1-0.6-1.1-2.5-2.2-4.1c-1.1-1.6-2.5-3.9-2.5-4
			c0-0.1,1.1-0.6,2.4-1.2c3.5-1.6,7.5-4.7,9.2-6.5s3-3.7,3-3.7l1.4,4.9c0.8,4.5,2,6.5,4.7,7.9c1,0.6,1.3,0.6,3,0.4
			c2.2-0.2,2.9-0.1,8,1.7c2.7,0.9,3.8,1.2,5.7,1.3l2.4,0.1l1-1c0.6-0.5,1-1.1,1-1.3c0-0.6,0.7-0.4,1.6,0.5c2,2,1.1,6.6-1.7,7.9
			l-1.4,0.6l-2.5-0.7c-1.4-0.4-2.7-0.7-3-0.7c-0.2,0-1.7,0.4-3.3,0.9c-4.4,1.3-6.4,1.5-14.4,1.2
			C321.8,247.1,318.4,246.9,317.9,246.8L317.9,246.8z"/>
		<path class="st4" d="M278.7,239.2c0.2-2.1,1.8-3.5,3.9-3.4c1.1,0,1.5-0.2,3.2-1.5c2.4-1.8,2.5-2.1,2.1-3.5c-0.4-1.3-1.3-1.8-3-1.6
			c-1.1,0.1-1.6,0-3.3-0.9c-2.7-1.3-4.3-1.4-6-0.1c-0.7,0.5-1.3,0.9-1.4,0.8c-0.1-0.1,0.1-0.7,0.5-1.4c1.2-2.4,3.2-3,6.4-1.9
			c3,1,4.9,0.9,6.8-0.3c1.4-0.8,1.5-1.7,0.5-2.7c-0.4-0.4-0.7-0.7-0.8-0.7c0,0-0.7,0.1-1.5,0.3c-2,0.5-3.4,0.3-6.1-0.9
			c-2.3-1-2.4-1-2.8-2c-0.3-0.7-0.3-0.9,0-0.5c2.2,2.7,9.2,2,10.7-1.1c0.2-0.5,0.6-0.7,1.1-0.7c1.1,0,3.4,1.4,4,2.4
			c0.6,1.1,0.7,3.9,0.2,4.6c-0.6,0.8-0.5,1.7,0.2,2.1c0.9,0.4,1.7,2.4,1.6,3.9c-0.1,2-1.4,3.4-3.8,4.2c-1.8,0.6-1.8,0.6-2.6,2.1
			c-0.9,1.8-1.5,2.3-2.6,2c-2.5-0.7-4.7-0.9-5.2-0.6c-0.4,0.2-0.9,0.8-1.2,1.4C279,240.6,278.6,240.5,278.7,239.2L278.7,239.2z"/>
		<path class="st4" d="M259.8,227.1c-0.8-1.1-1.2-1.9-1.5-3.3c-0.4-2.5-1.3-3.8-3.8-6.1c-3.1-2.9-3.7-5-2.1-7.8
			c0.3-0.6,0.5-0.9,0.5-0.5c-0.2,0.8,0.1,2.6,0.5,3.7c0.5,1.2,1.2,1.7,3.8,3.4c1.9,1.2,2.5,1.7,3.2,2.7c1.4,2.1,2.6,2.3,3.4,0.7
			c0.7-1.3,0.6-2.3-0.3-3c-0.8-0.7-1.7-3.2-2-6c-0.2-1.4-0.1-2.1,0.3-2.9c0.8-1.6,0.3-2.1-2.4-2.8c-2.2-0.6-2.7-1-3-2.6
			c-0.2-1,0.7-3.4,1.2-3.5c0.2,0,0.3,0.2,0.1,0.5c-0.5,1.1,0.1,1.8,2.3,2.7c1.7,0.7,2.1,1,3.3,2.1c1.6,1.6,2.2,2.9,1.9,4.1
			c-0.7,2.6,2,5.9,4.1,5c1.2-0.5,2.3-2.9,2.1-4.4c-0.1-0.9,0.1-1.8,0.7-3.4c1.2-3.2,1-3.9-1.6-5.7l-1.1-0.7l1,0c2,0,4,2.4,3.8,4.7
			c-0.2,2,0.2,2.7,1.2,2.8c1.3,0.1,2.4,0.8,3.7,2.3c2.6,3.2,1.7,5.4-2,4.6c-1.9-0.4-4.1,0.3-6.7,2.1l-1.6,1.1l-2.9,6
			c-1.6,3.3-3.1,6-3.3,6.2C262,229.3,260.9,228.6,259.8,227.1L259.8,227.1z"/>
		<path class="st4" d="M377.4,240.8l-1.2-1.3l-2.1,0.1l-2.1,0.1l-0.7-0.9c-1.4-1.8-0.3-3.4,2.2-3.3c1.7,0.1,2.7,0.6,3.9,2
			c1,1.1,1.6,2.8,1.3,4C378.6,242.1,378.6,242.1,377.4,240.8L377.4,240.8z"/>
		<path class="st4" d="M358.2,227.7c-0.6-0.3-1.1-1.7-0.9-2.3c0.3-0.9,2-2,3.4-2.3c2.1-0.4,4.8,0.5,6.2,2.1c0.4,0.5,0.4,0.5-1.4,0.3
			l-1.8-0.2l-1.5,1.4c-1.3,1.2-1.7,1.4-2.5,1.3C358.9,227.9,358.3,227.8,358.2,227.7L358.2,227.7z"/>
		<path class="st4" d="M281.2,208.2c-2-2-3.5-4.7-6.9-12.4c-5.5-12.4-10.3-18.2-19.9-23.9c-2.6-1.5-2.6-1.6,0-2.4
			c1.2-0.4,2.6-0.7,3-0.7c0.8,0,3.4,0.8,3.3,1c0,0.1-0.4,0.4-0.8,0.7c-0.9,0.8-1,1.2-0.4,2.2c0.5,0.7,3,3.3,3.4,3.5
			c0.1,0.1,1.1-0.3,2.1-0.7l1.9-0.8l0.8,1c1.1,1.5,1.4,2.9,1.2,5.4c-0.1,1.2-0.1,2.3,0,2.3c0.1,0.1,1.2,0.1,2.3,0.1l2.1,0l0.4,1.2
			c0.4,1.1,0.4,1.3-0.4,3.1c-0.4,1.1-0.7,2-0.6,2c0.1,0.1,1,0.2,2,0.4l1.8,0.3l0,1.5c0,0.8-0.1,2.7-0.1,4.2l-0.1,2.7l1.7-1.3
			c0.9-0.7,1.8-1.3,1.9-1.3c0.3-0.1,0.9,1.6,1.1,3c0.1,0.7,0.1,2.5,0,4c-0.1,1.5-0.2,2.7-0.1,2.7c0.1,0.1,1-0.5,1.9-1.1
			c1-0.7,1.8-1.3,1.9-1.3c0.1,0,0.7,1.3,1.3,2.9c0.8,2.1,1.3,2.9,1.6,2.9c0.4,0,0.5-0.3,0.7-1.6c0.1-0.9,0.7-2.4,1.2-3.4l0.9-1.8
			l0.6,1.6c0.9,2.2,1.9,2.8,4.9,3c1.2,0.1,2.2,0,2.1-0.1c-0.1-0.1-0.8-1-1.7-1.8c-1.2-1.3-1.7-2.1-2.5-4.1l-1-2.5l1.2,0.2
			c2,0.3,2.5-0.9,1-2.2c-1.1-1-2-1.4-4.2-1.9l-1.9-0.4l0.7-2.8c0.4-1.6,0.7-3,0.8-3.2c0-0.2-0.7-0.2-2.1,0c-1.2,0.2-2.2,0.4-2.3,0.3
			c-0.1,0-0.1-0.8,0-1.6c0.1-1.2,0-2.1-0.7-4l-0.9-2.5l-1.5,1.1c-3,2.1-3.8,1.8-3.6-1.2c0.3-4,0-5.2-2.3-9.2l-0.7-1.2l-1.4,0.5
			c-1.5,0.5-1.8,0.9-1.9,2.5c0,0.6-0.1,1.1-0.2,1.1c-0.2,0.1-2.7-3.9-3.1-5c-0.5-1.3-0.5-2.4,0-4.7c0.3-1.1,0.5-2.1,0.5-2.1
			c0,0-0.7-0.6-1.5-1.2c-1.6-1.2-2.7-1.4-3.7-0.7c-0.8,0.6-0.9,0.3-0.6-1.3c0.2-1.5,1.3-3.4,2.5-4.4c0.3-0.2,0.3-0.4,0-0.7
			c-0.3-0.3-0.9-0.2-2.2,0.2l-1.8,0.6l0-1.1c-0.1-1.5,0.1-4,0.4-5.2c0.2-0.8,0.4-1.3,1.1-2c0.5-0.5,1.1-1.3,1.3-1.7l0.4-0.8
			l-1.2,0.1c-1,0.1-1.4,0-2.4-0.6c-1.1-0.7-1.3-0.7-2.6-0.4l-1.4,0.4l0.3-0.6c0.6-1.2,2.3-3.3,3.1-3.9c0.4-0.3,1.7-1,2.8-1.5
			c1.1-0.5,1.9-1,1.8-1.1c-0.1,0-0.9-0.3-1.8-0.5c-2-0.5-2.5-1-3.6-4l-0.8-2.1l1.7,0.3c2,0.3,3.2-0.1,5.2-2c0.8-0.8,1.5-1.5,1.5-1.6
			c0.1-0.1-0.5-0.6-1.2-1c-1.1-0.7-1.5-0.8-2.9-0.9c-0.9,0-1.7-0.1-1.7-0.2c0-0.1,0.4-0.4,0.8-0.7c0.5-0.3,1.3-1,1.9-1.6
			c1.1-1.1,2.9-1.7,5.1-1.7c1.4,0,1.4,0,1.5-2.4c0-1-0.1-1.3-1-1.9l-1-0.8l1.5-0.2c1.9-0.3,3.5,0.1,5.1,1.1c1.6,1,2.3,0.7,1.5-0.7
			c-0.8-1.4-1.7-3.6-1.5-3.6c0.1,0,1.8,0.3,3.8,0.7c3.5,0.7,9.3,1.2,9.5,0.8c0.2-0.4-1-3.2-1.6-3.9l-0.6-0.7l0.8,0
			c0.6,0,2.1,0.6,6,2.5c3.5,1.7,5.7,2.7,6.9,2.9l1.7,0.4l-1.5-2.1c-0.8-1.2-1.8-2.8-2.2-3.6l-0.7-1.5l0.8,0.6c1,0.7,6.3,3.9,7.4,4.4
			c0.6,0.3,0.8,0.6,0.9,1.8c0.1,0.8,0.2,1.4,0.1,1.5c0,0-0.8-0.1-1.8-0.3c-5.2-1.1-13.3-1.3-18.3-0.6c-9.8,1.5-17.2,8.1-19.5,17.6
			c-2.3,9.5-1.4,19,2.9,28.4c2.9,6.3,6,10.9,13.8,20.5c8.5,10.3,10.9,13.7,12.7,18.1c1.1,2.7,1.4,4.6,1,7c-0.4,2.1-1.1,2.7-4.2,3.6
			C289.6,211.5,283.8,210.8,281.2,208.2L281.2,208.2z"/>
		<path class="st4" d="M357,207.6c-0.4-1.7,0-3.6,1.3-6c1.5-2.8,2.3-3.4,6.9-5.3c3.6-1.5,5.7-2.7,6.2-3.8c0.2-0.3,0.3-1.6,0.4-2.8
			c0.1-2.5,0-2.4,3.6-5.3c2.3-1.9,2.5-2.6,1.8-5.1c-0.3-1-0.7-2.5-0.8-3.3l-0.3-1.5l1.5-3.2c0.8-1.8,1.6-3.7,1.7-4.2
			c0.2-0.8,0.3-0.9,0.7-0.8c0.5,0.2,0.6,0.1,0.4-1.1c-0.3-1.8,0-2.9,0.8-3.8c0.4-0.4,0.8-0.8,0.9-0.7c0.1,0,0.3,1.6,0.4,3.6l0.2,3.5
			l-1.7,3.7c-0.9,2-1.7,3.9-1.7,4.2c0,0.3,0.3,2,0.6,3.7c0.7,3.9,0.5,4.6-2.6,7.3c-2.5,2.2-2.9,3.1-2.9,5.6l0,1.9l-1,0.9
			c-0.8,0.7-2,1.3-5.8,2.5c-3.1,1-5.3,1.9-6,2.4c-2.2,1.6-4.4,5.7-4.2,7.9C357.5,208.9,357.3,208.8,357,207.6L357,207.6z"/>
		<path class="st4" d="M113.9,156.3l-0.6-1.4c-1-2.4-2.7-8.3-2.9-10c-0.2-1.6,0.3-8.6,0.6-8.9c0.1-0.1,0.2,0.7,0.2,1.8
			c0.1,3.6,0.4,5.7,1.4,8.3c0.9,2.4,2,4.3,2.3,4c0.1-0.1,0.1-0.9,0.1-1.9c-0.3-7.5-0.1-16.7,0.5-19.2c0.6-2.5,0.7-2.6,0.8-0.4
			c0.4,5.3,0.6,6.5,1.7,8.8l1.1,2.3l-1.1,3c-1.1,3.1-2.8,8.8-3.3,10.9c-0.1,0.6-0.4,1.5-0.5,2L113.9,156.3z"/>
		<path class="st4" d="M127,168.7c-0.6,0-1.3-0.2-1.4-0.3c-0.3-0.4-0.4-7.3-0.1-12c0.4-6.5,1.6-16.7,2.3-19.6
			c1.7-6.6,5.1-13.3,10.6-20.8c3.7-5,2.8-4.9-3.5,0.3c-7,5.8-8.7,8-13,17.2c-0.6,1.3-1.4,2.9-1.7,3.5l-0.6,1.2l0-0.8
			c0-0.5,0-2.2,0.1-3.9c0-1.7,0-4.3,0-5.7c-0.2-5.6,0.5-10.1,1.8-11.1l0.5-0.4l-0.2,0.8c-0.4,1.5-0.5,8.8-0.1,11.2
			c0.2,1.1,0.8,2.2,1.1,2c0.1-0.1,0.3-0.9,0.4-1.9c0.8-5.6,2.2-11.2,3.5-14.1c0.7-1.6,2.5-4.5,2.8-4.5c0.1,0-0.3,2.3-0.8,5
			c-0.9,4.3-1.1,6.6-0.7,6.7c0.1,0,0.6-1.3,1.2-3c1.6-4.2,2.6-6.6,4.6-10.3c0.9-1.8,1.8-3.3,1.8-3.3s-0.1,1.3-0.2,2.9
			c-0.6,5.6,0.1,7.1,1.5,3c1.2-3.6,2.7-7.1,3.8-8.8c1-1.7,3.6-3.8,5.7-4.7l1.3-0.6l-1.6,1.5c-0.9,0.8-1.8,1.9-2.2,2.3
			c-0.7,0.9-1.7,3.8-2,5.5l-0.2,1.2l1.7-1.6c4.5-4.1,9-7.8,10.7-8.9c5.2-3.2,6.5-4.3,7.9-6.3c0.7-1,1.3-1.8,1.3-1.8
			c0,0-0.3,0.9-0.6,1.9c-1.9,4.9-7.2,11.4-14,17c-4.3,3.6-4.4,3.7-3.4,3.9c1.6,0.3,8-2.4,11.8-5l2.7-1.9l-1.6,2
			c-2.6,3.2-5.8,5.5-10.7,7.7c-2.2,1-5.1,2.2-6.5,2.7c-1.7,0.7-2.6,1.1-2.6,1.3c0.1,0.6,1.5,0.4,4.1-0.4c7.2-2.4,12.4-3.5,15.9-3.3
			c2.9,0.1,3.4,0.4,1.2,0.6c-3.6,0.4-4.6,0.8-8.5,3.3c-4.7,2.9-5.1,3.1-11.5,4.2c-2.9,0.5-5.3,1-5.2,1c0.5,0.6,2.3,1,6,1.1
			c7.6,0.4,7.8,0.3,13.1-1.9c3.8-1.6,5.9-2,7.4-1.2c1.5,0.8,1.5,0.9,0,0.7c-2.6-0.3-3.3,0.1-6.9,3l-3.2,2.6l-4.5,0.8
			c-2.5,0.4-7,1-10.1,1.2c-3.1,0.2-5.6,0.5-5.5,0.7c0.2,0.6,2.7,1.2,7.4,1.7c7.7,0.9,10.6,0.7,13.8-1c1.1-0.5,2.2-1,2.5-1.1
			c0.6-0.1,1.8,0.3,1.7,0.6c-0.1,0.3-6,3.4-8.6,4.4c-2.8,1.1-3.3,1.2-7.2,1.3c-2.3,0.1-5.9,0-8.1-0.1c-2.1-0.1-3.9-0.2-4-0.1
			c-0.8,0.6,4.4,1.7,10.9,2.4c5,0.5,5.4,0.5,13.8-0.7l2.4-0.3l-1.9,1.5l-1.9,1.5l-3.1,0.5c-4.4,0.7-6.9,0.8-13.4,0.4
			c-3.2-0.2-5.8-0.3-5.8-0.2c0,0.4,1.7,1.3,3.4,1.8c4.3,1.3,11.6,1.7,18,1c2.5-0.3,2.7-0.2,1.8,0.2c-1.7,0.9-5.8,2.2-7.5,2.4
			c-1.8,0.2-8.8,0.2-14-0.1c-2.3-0.1-3.6,0-3.6,0.2c-0.1,0.7,1.8,1.1,8.2,2c7.4,1,9.9,1.2,12.9,0.8c2.1-0.3,2.2-0.2,1.3,0.2
			c-2,1.1-5.3,2.4-6.3,2.4c-4.3,0.4-7.5,0.2-13.6-0.6c-1.8-0.2-3.3-0.4-3.3-0.2c0,0.5,2,1.7,4.1,2.4c5.4,1.9,9.2,2.6,12.6,2.3
			c1.1-0.1,1.9-0.1,1.8,0s-0.9,0.6-1.9,1c-3.3,1.6-8,1.8-14.5,0.6c-2.4-0.4-3.2-0.5-3-0.1c0.9,1.1,3.8,2.2,7.7,3
			c2.9,0.6,4.1,0.6,7.4,0l2.8-0.5l-2.3,1.6c-3.2,2.3-5,2.6-10.4,1.8c-2.2-0.3-4-0.5-4-0.4c-0.2,0.2,0.6,1,1.6,1.6
			c1.5,0.8,5.2,1.4,7.5,1.2c1.8-0.2,2-0.1,1.6,0.3C136.8,167.9,130.7,168.9,127,168.7L127,168.7z"/>
		<path class="st4" d="M347.5,185.1c-0.1-0.3-0.2-1.4-0.2-2.3l-0.1-1.7l-1.3,0.1c-0.7,0.1-1.4,0.1-1.4,0c-0.2-0.4,0.7-2.7,1.4-3.4
			c0.4-0.4,0.7-0.8,0.8-0.9c0.1-0.3-1.1-0.5-2.1-0.4l-1,0.1l0.3-0.8c0.1-0.4,0.6-1.1,1.1-1.4c1.1-0.8,0.8-1.3-0.6-1.2
			c-0.9,0.1-2.8-0.3-2.7-0.5c0,0,0.4-0.4,0.9-0.9c0.5-0.4,1-1.2,1.2-1.7l0.3-0.9l-1.9,0.5c-2.1,0.5-4.6,0.3-4-0.4
			c0.6-0.7,1.6-2.3,1.5-2.5c-0.1-0.1-1-0.2-2.1-0.1c-1.4,0.1-2.5-0.1-3.7-0.5c-1-0.3-1.7-0.6-1.7-0.7c0-0.1,0.6-0.7,1.4-1.5
			c0.8-0.8,1.3-1.4,1.3-1.5c0-0.1-1,0.1-2.1,0.3c-1.1,0.2-2.4,0.3-2.8,0.2l-0.8-0.2l0.9-0.6c2.1-1.4,2.1-1.3,1.4-1.3
			c-2.7,0.1-3.7-0.2-5.5-1.5c-2.7-1.9-2.7-1.9-0.8-2.1c2-0.2,2.7-0.8,2.3-2.1c-0.4-1.4-1.5-2.2-3.5-2.7c-1.7-0.4-4.4-1.8-6.1-3.1
			c-0.6-0.5-0.6-0.5,0.3-0.2c0.5,0.2,1.4,0.2,1.9,0c1.1-0.3,4-1.4,4.2-1.6c0.1-0.1-0.9-0.3-2.1-0.5c-1.8-0.3-2.5-0.5-3.5-1.1
			c-0.7-0.4-1.3-0.8-1.3-0.9c0-0.1,0.5-0.4,1.1-0.6l1-0.5l-1.1-0.9c-0.6-0.5-1.3-1.2-1.6-1.6l-0.4-0.7l1.2,0c1.6,0,1.7-0.2,1.1-1.7
			c-0.4-1.2-1-1.7-3.1-3.2c-0.9-0.6,2.1-0.6,4.4,0l2.2,0.6l-1-1.5c-0.6-1-1-1.9-1-2.8c0-1.2,0-1.2,0.4-0.8c0.2,0.2,1.2,0.7,2.1,1
			c3.1,1,4.3,1.8,5.1,3.4c0.9,1.6,2.5,3.3,4.5,4.5c0.8,0.5,1.4,0.9,1.5,1c0,0.1-0.7,0.4-1.6,0.7c-2.2,0.8-3.4,2-4.4,4.6
			c-1.1,2.6-0.8,4.2,1.2,7.5c2.1,3.6,4.5,5.7,9.8,9c2.3,1.4,4.4,3.4,6.5,6c1.4,1.7,1.6,2.1,1.8,3.8c0.4,2.6,0.7,3.5,1.9,4.8
			c1.2,1.4,3.2,2.1,5.1,1.9c1.8-0.2,4.6,0.1,6.9,0.9c3.6,1.2,5.2,1,5.4-0.5l0.1-0.8l0.6,0.8c0.3,0.4,0.8,1.3,0.9,2
			c0.3,1.2,0.4,3.3,0.1,3.4c-0.1,0-0.6-0.4-1.2-0.9c-1.3-1.1-1.4-1.1-1.4,0c0,0.4-0.2,1.2-0.4,1.7l-0.5,0.9l-0.8-1.3l-0.8-1.3
			l-0.7,1.5c-0.4,0.8-0.8,1.6-1,1.7c-0.4,0.2-1.5-2.2-1.8-3.7c-0.4-2.1-1.9-2.6-5.5-1.8c-2.4,0.5-4.7,1.8-5.6,3
			C347.7,185.6,347.6,185.6,347.5,185.1L347.5,185.1z"/>
		<path class="st4" d="M341.3,179.9c-1.5-0.9-3.1-2.7-3.8-4.2c-0.5-1.2-1.1-1.9-2-2.6c-1.6-1.2-2.2-1.4-4.7-1.6
			c-1.9-0.2-2-0.2-2.9-1l-1-0.8l1.2,0.1c0.7,0.1,1.8-0.2,2.7-0.6c2.3-0.9,3.7-0.4,6.5,2.6c1.5,1.6,2.6,2.2,3.5,1.9
			c0.3-0.1,1.1-0.1,1.9,0c1.3,0.2,1.3,0.3,0.9,0.7c-0.5,0.4-1.4,2.9-1.2,3.3c0.1,0.1,0.6,0,1.3-0.2c1.3-0.5,1.9-0.4,1.4,0.1
			c-0.2,0.2-0.6,1-1,1.8C343.3,180.9,343,181,341.3,179.9L341.3,179.9z"/>
		<path class="st4" d="M350.1,177.4c-1.2-1.1-1.7-2-2.1-4.4c-0.7-3.8-3.8-7.6-8.9-10.8c-5.3-3.3-7.6-5.5-9.6-8.9
			c-2.1-3.7-2.2-5.8-0.1-8.5c1-1.3,1.5-1.7,3.2-2.4l2.1-0.9l2.6,1.2c3.9,1.7,4.2,1.7,2.5,0c-0.6-0.6-1.2-1.8-1.6-2.9
			c-0.3-1-0.7-2-0.8-2.1c-0.3-0.3,0.4-2.3,1-3.3c0.3-0.4,1-1,1.6-1.4c0.9-0.5,1.2-0.9,1.5-2c0.4-1.3,0.1-2.5-0.7-2.8
			c-0.7-0.2-0.6-0.8,0.4-1.5c1.3-1,3.1-1.4,4.9-1.1c1.8,0.3,2.3,0.6,3.3,1.8c0.7,0.9,0.8,0.9,2,0.9c1.5,0,4.3,0.8,5,1.5
			c0.3,0.3,0.9,1,1.4,1.8l0.9,1.3l-1.2-0.3l-1.2-0.3l0.9,1.1c1.3,1.6,0.9,1.9-1.7,1.6c-1.1-0.1-1.1,0.2,0,1.1
			c1.8,1.5-0.5,1.2-2.5-0.4c-0.7-0.5-1.8-1.1-2.7-1.4l-1.5-0.5l0.8,1.3c0.9,1.7,0.8,2.2-0.4,1.8c-0.8-0.2-2.9-0.1-3,0.2
			c0,0.1,0.3,0.4,0.7,0.8c1.5,1.3,1.1,1.6-1.3,0.8c-1.2-0.4-2.2-0.6-2.2-0.6c-0.1,0.4,0.5,1.6,0.8,1.8c0.2,0.1,0.3,0.2,0.3,0.4
			c-0.1,0.4-1.2-0.1-2-0.9c-0.8-0.9-1-0.7-0.7,0.9c0.3,1.4,1.1,2.3,2.8,2.8c1.4,0.4,1.4,0.5,0.3,1.4c-0.9,0.7-0.9,0.8,0.8,0.7
			c1.3,0,1.3,0,2.4,1.2c2.2,2.4,4.3,3.5,6.4,3.2l1.1-0.1l-0.2,0.5c-0.2,0.7,0.1,1.7,0.8,2.4c0.4,0.4,0.6,0.4,1.4,0.2l1-0.3l0.4,0.9
			c0.5,1,1.2,1.3,2.1,0.8c0.6-0.3,0.7-0.3,1,0.1c0.2,0.3,0.6,0.7,0.9,0.9l0.6,0.4l-0.7,0.2c-0.4,0.1-0.8,0.3-0.8,0.4
			c-0.1,0.3,4.3,1.6,4.9,1.5c0.6-0.1,0.6-0.1,0.2,0.3c-0.2,0.2-0.5,0.6-0.6,0.9c-0.1,0.4-0.6,0.6-1.6,0.6c-1.3,0.1-1.9,0-4.9-1
			c-4.4-1.5-7.8-3.2-11.4-5.7c-4.4-3.1-6.1-3.4-8.2-1.5c-1.1,1-1.7,2.4-1.5,3.3c0.1,0.7,3.3,5.1,6.2,8.7c2.4,3,2.8,3.9,3.2,7.4
			c0.4,3.2,0.8,4.6,1.7,5.6c0.9,1,2.4,1.5,3.3,1.1c1.2-0.6,4.3-0.4,6.9,0.5c2.3,0.8,2.4,0.8,3.4,0.3c1-0.5,1.1-0.5,1.3,0.1
			c0.3,0.9,0.2,1.8-0.2,2c-0.2,0.1-1.8-0.2-3.6-0.7c-3.4-0.9-5.4-1.2-7.2-1C352.6,178.6,351.2,178.3,350.1,177.4L350.1,177.4z"/>
		<path class="st4" d="M351.4,176c-0.4-0.3-0.8-0.7-0.8-0.9c-0.2-0.8,2.8-4.3,3.2-3.7c0.2,0.4-0.3,3.3-0.8,4.3
			C352.5,176.8,352.4,176.8,351.4,176L351.4,176z"/>
		<path class="st4" d="M353.9,174.2c0.3-1.3,0.5-2.5,0.4-3l-0.2-0.8l-1,0.7c-0.6,0.4-1.5,1.3-2,2l-0.9,1.4l-0.3-2.1
			c-0.2-1.2-0.5-2.9-0.7-3.9c-0.2-1-0.2-1.9-0.1-1.9s0.6-0.6,1-1.1l0.8-1l1,1.8c1.4,2.5,4,4.2,6.5,4.2c1.4,0,1.5,0.1,3,2.8
			c0.9,1.6,1,1.8,0.6,2.9l-0.4,1.2l-1.4-0.5c-1.7-0.5-3.5-0.7-5.4-0.5l-1.4,0.2L353.9,174.2L353.9,174.2z"/>
		<path class="st4" d="M362.6,175.8c0.3-1,0.8-1.9,1.2-2.3l0.7-0.6l0.2,1c0.4,1.9-0.7,3.9-2,3.6
			C362.1,177.4,362.1,177.3,362.6,175.8L362.6,175.8z"/>
		<path class="st5" d="M316.6,160.4c-0.6-0.3-1.9-1.2-2.9-2c-3-2.3-4.8-3.1-8.1-3.4c-1.1-0.1-0.9-0.5,0.5-1.1
			c1.6-0.8,3.3-0.7,6.9,0.2l3.1,0.8l-1.9-1.8c-2.1-2-4.1-3-8.6-4.5c-2.5-0.8-7.1-3.2-8.3-4.2c-0.4-0.4-0.9-0.9-1-1.3
			c-0.3-0.6-0.3-0.6,1.4,0.1c1.8,0.8,4.7,1.2,5.3,0.9c0.3-0.2,0.1-0.4-1.3-1.2c-2.6-1.6-4.9-3.5-5.5-4.6c-0.3-0.6-0.7-2.1-0.9-3.7
			c-0.4-3.2-1.4-6.7-2.5-7.9c-0.4-0.5-1.7-1.6-2.8-2.5c-2.5-1.9-2.2-2.1,1.4-0.9c2.7,0.9,4.5,2.2,7.2,5.4c1.6,1.9,2.2,2.3,4.1,2.9
			c1,0.3,4.8,0.8,4.8,0.7c0-0.1-0.9-0.8-2.1-1.6c-7.6-5.2-10.1-9.2-13.4-21.3c-1.7-6.1-3.6-10.3-5.5-11.9c-1.5-1.3-1-1.4,2-0.4
			c3.1,1,6.6,3.3,6.1,3.9c-0.5,0.7,0,2.4,1.4,4.4c2.7,3.9,4.8,5.7,9.2,7.9c5,2.6,7.9,3.3,11.3,3.1c1-0.1,1.3,0,1.9,0.5
			c0.4,0.3,1.9,0.9,3.2,1.4c2.3,0.7,2.4,0.8,2.5,1.4c0,1-0.8,1.1-2.7,0.5c-0.9-0.3-2.2-0.8-2.7-1.1c-1.3-0.7-2.4-0.3-2.8,1
			c-0.3,1-0.2,1.2,1.9,2.8c2.5,2,5.3,3,7.7,2.8c3.5-0.2,4,0.1,10.2,6.6l1.9,2l-0.5,0.9c-0.3,0.5-0.5,1-0.5,1c0,0-0.5-0.3-1-0.6
			c-0.5-0.4-2.1-1.1-3.4-1.7c-2.8-1.1-3.1-1.4-4.1-3.1l-0.7-1.2l0,1.8l0,1.8l-0.7-0.4c-0.4-0.2-1.6-0.7-2.8-1.1
			c-2-0.6-2.3-0.8-3.2-1.9l-1-1.2l-0.1,0.9c-0.1,1.4,0.1,3.6,0.5,4.4c0.4,0.7,0.4,0.7-0.3,0.6c-0.4,0-1-0.1-1.3-0.3
			c-0.4-0.1-1.7,0-3,0.2l-2.3,0.4l1.1,0.6c2.2,1.2,3,1.7,3.6,2.6c0.8,1.2,0.6,1.6-0.7,1.5c-0.6,0-1.2,0-1.3,0
			c-0.5,0.1,0.4,1.9,1.4,2.8l1,1l-1.3,0.4l-1.3,0.4l0.9,0.8c0.5,0.4,1.8,1.1,3,1.6c1.8,0.7,2,0.8,1.6,1.1c-1,0.6-3,0.5-4.5-0.2
			c-1.4-0.6-1.5-0.6-1.2-0.1c0.7,1.5,4.6,4.1,7.9,5.2c2.4,0.8,3.5,1.6,3.4,2.6c0,0.9-0.4,1.1-3.2,1l-2.4-0.1l2.4,2
			c2,1.7,2.7,2.1,4.2,2.6l1.8,0.6l-0.6,0.4c-0.7,0.5-3.4,0.7-5.2,0.5C321.5,162.1,317.9,161.1,316.6,160.4L316.6,160.4z"/>
		<path class="st4" d="M371.9,175.1c-1.4-1.6-4.7-4.1-6.4-4.8c-1.4-0.6-2.1-0.7-4.8-0.7c-2.7,0-3.4-0.1-4.6-0.6
			c-1.6-0.7-3.1-2-3.5-3c-0.2-0.4-0.6-1.1-1-1.6c-0.5-0.7-0.6-1.1-0.4-1.8c0.5-1.5,0.2-1.7-0.9-0.7c-0.9,0.9-1,0.9-2,0.6l-1.1-0.4
			l0.5-0.8c0.3-0.4,0.6-1.5,0.7-2.3l0.3-1.5l-1.7,1.6c-1,0.9-1.9,1.6-2.1,1.6c-0.4,0-4.3-5.4-4.7-6.4c-0.3-1-0.2-1.3,1.1-2.6
			c1.3-1.2,2.6-1.5,4-0.8l0.8,0.4l-0.6,1.4c-0.5,1.1-0.9,1.5-2.2,2.4c-1.7,1.1-1.7,1.3,0,1.4c1.6,0.1,3-0.4,4.5-1.7
			c0.7-0.6,1.3-1,1.3-1c0.1,0,0.7,0.4,1.5,0.9c1.8,1.1,2.3,2,2.9,4.7c0.5,2.5,1.7,4.8,2.9,5.9c0.9,0.8,1,0.8,3.4,1.1
			c3.8,0.4,7.5,1.7,9.1,3.2c1.8,1.6,3.4,3.9,3.6,5.3c0.1,0.7,0.2,1.2,0.1,1.2C372.8,176.1,372.3,175.7,371.9,175.1L371.9,175.1z"/>
		<path class="st4" d="M348.2,165.6l-0.5-0.7l1.5-1.3l1.5-1.3l-0.5,1.4c-0.2,0.7-0.7,1.6-1,2C348.7,166.2,348.7,166.2,348.2,165.6
			L348.2,165.6z"/>
		<path class="st4" d="M347,163.7c-0.6-0.8-0.5-0.9,0.9-0.6c0.9,0.2,1,0.2,0.7,0.5C347.6,164.4,347.5,164.4,347,163.7z"/>
		<path class="st4" d="M345.6,162l-0.4-0.6l1.4-1.2l1.4-1.2l-0.4,1.2c-0.2,0.7-0.7,1.5-1,1.8C346,162.6,346,162.6,345.6,162
			L345.6,162z"/>
		<path class="st4" d="M419,183.4c-0.6-2.1-2.7-6-4.4-7.9c-1.9-2.3-3.1-2.8-6.2-2.8c-3.3,0-3.5-0.1-5.1-2.8
			c-0.7-1.3-1.6-2.6-1.9-2.9c-0.4-0.4-2.1-1.1-5.2-2.2c-4.9-1.8-5.2-1.9-7.1-4.2l-0.6-0.8l2.3,0.7l2.3,0.7l-0.4-0.8l-0.4-0.8
			l1.5,1.2c1.2,1,2.2,1.5,4.8,2.5c1.8,0.7,3.6,1.5,3.9,1.8c0.4,0.3,1.2,1.4,1.9,2.5c1.7,2.8,2.3,3.2,6,3.6l2.9,0.3l1.2,1.1
			c2.7,2.4,6.2,10.7,5.2,12C419.5,184.7,419.3,184.2,419,183.4L419,183.4z"/>
		<path class="st4" d="M343.2,155.9c0.2-0.1,0.7-0.5,1.2-0.9c0.6-0.4,1.1-1,1.5-1.9c0.3-0.7,0.6-1.3,0.7-1.3c0.6,0.2,2,1.3,1.9,1.6
			c-0.1,0.4-2.4,2.2-2.9,2.4C344.8,156.1,342.8,156.2,343.2,155.9z"/>
		<path class="st4" d="M372.7,162.6c-0.3-0.7-0.6-1.6-0.7-2.1l-0.2-1l-1,0.3c-0.6,0.2-1.4,0.6-1.8,0.9c-1,0.8-1.2,0.8-1.3-0.2
			c-0.2-1.1,0.2-1.9,1.1-2.7c1.2-0.9,0.9-1.3-0.9-1.1c-1.6,0.1-3.4-0.2-3.3-0.6c0-0.1,0.6-0.4,1.2-0.6c0.6-0.2,1.5-0.7,2-1.1
			c1-0.7,3.3-1.9,3.6-1.8c0.1,0,0,0.4-0.2,0.8c-0.9,1.8,1.5,4.4,4.3,4.6c1.2,0.1,3-0.7,3.2-1.5c0.1-0.5,0.4-0.5,1.3-0.4
			c1.7,0.3,3-0.6,3.3-2.2c0.2-0.8,0.1-1.4-0.1-1.7c-0.3-0.4-0.3-0.5,0.1-0.9c0.8-0.7,0.9-1.6,0.2-2.5c-0.3-0.5-0.9-1-1.2-1.1
			c-0.5-0.2-0.5-0.2,0.1-0.5c1.1-0.6,4.3-0.8,6.4-0.4c1.1,0.2,2.1,0.4,2.1,0.5s-1.1,0.6-2.4,1.1c-1.4,0.5-2.4,1-2.3,1.1
			c0.1,0.1,0.7,0.2,1.3,0.2c1.2,0.1,3.1,0.7,4.3,1.3l0.8,0.4l-1,0.2c-1.3,0.2-3.1,1.5-2.7,1.8c1.4,0.9,2.6,1.9,2.3,2
			c-0.2,0.1-1.1,0.1-2,0l-1.7-0.1l1.2,1.2c0.7,0.6,1.6,1.7,1.9,2.2l0.7,1.1l-1.8-0.6c-4-1.3-6-1-8.1,1c-1.3,1.2-1.8,2.6-1.7,4.1
			c0.1,0.8,0,1-0.2,0.9c-0.9-0.3-2.1-1.3-2.9-2.5c-1-1.5-1.2-1.5-2.8,0.1l-0.8,0.8L372.7,162.6L372.7,162.6z"/>
		<path class="st4" d="M359.9,152.5c-0.4-0.8-0.9-1-2-0.6c-1.4,0.5-1.7-2.1-0.4-3.5c1.5-1.6,1.4-3-0.4-5.9c-1-1.6-1.1-3.2-0.1-2.9
			c0.3,0.1,0.7,0.7,1,1.5c1,2.8,1.8,3.6,5.1,4.6c1.7,0.6,2.7,0.7,4.1,0.7c4.2,0,7.3,0.7,8.7,2l0.9,0.8l1-0.6c2-1.3,4.6-1,5.5,0.6
			c0.5,0.9,0.4,1.1-0.7,1.6c-0.9,0.4-0.9,0.4-0.5,0.9c0.2,0.3,0.5,0.5,0.6,0.5c0.2,0.1,0.4,1.4,0.3,1.9c-0.1,0.2-0.5,0.6-1.1,0.9
			c-0.8,0.5-1.1,0.5-2.2,0.1l-1.3-0.4l-0.3,1c-0.3,0.9-0.4,1.1-1.4,1.3c-1.7,0.4-3.3-0.3-4.4-2c-0.5-0.8-0.3-1.6,0.7-3.1
			c0.4-0.6,0.7-1.1,0.6-1.1c-0.3-0.1-5.2,2.2-6.8,3.1c-1.2,0.7-1.6,0.8-2.3,0.5c-0.5-0.2-1-0.5-1.1-0.8c-0.1-0.3-0.5-0.6-0.8-0.7
			c-0.3-0.1-0.8-0.1-1.1,0.1C360.7,153.6,360.3,153.4,359.9,152.5L359.9,152.5z"/>
		<path class="st4" d="M352.1,148.8c-1-0.5-2-1.3-3.1-2.5l-1.1-1.2l0.9-0.3c1.1-0.4,1.7-0.3,1.5,0.2c-0.2,0.7,0.9,2,2.1,2.4
			c2.4,0.8,4.4-1.2,3.4-3.4c-0.2-0.5-0.6-1-0.8-1.1c-0.5-0.2-0.4-0.4,0.3-0.8c0.5-0.3,0.6-0.3,1.3,1c1.2,2,1.5,3,1.1,4
			C357.1,149,354.3,149.9,352.1,148.8L352.1,148.8z"/>
		<path class="st4" d="M335.2,140.7c-4.3-2.2-6.6-4.4-7-6.6c-0.3-1.6-0.2-1.7,1-0.9c0.6,0.4,2.2,1.2,3.6,1.8
			c2.2,0.9,2.7,1.2,3.4,2.2c0.8,1,2.6,5.4,2.2,5.2C338.2,142.2,336.8,141.5,335.2,140.7z"/>
		<path class="st4" d="M346.6,143.7c0.1-0.7,0.1-0.7-1.2-1.2c-0.8-0.3-1.6-0.7-1.9-1.1c-0.7-0.8-0.7-1.1,0-0.6
			c0.7,0.5,2.2,0.4,2.4-0.2c0.1-0.3-0.1-0.6-0.5-0.9c-0.6-0.4-0.4-0.4,1.2-0.1c2.2,0.5,2.7,0.2,1.9-1.2c-0.6-1.2-0.4-1.3,1.1-0.8
			c1,0.3,1.2,0.3,1.4-0.2c0.1-0.3,0.1-1-0.1-1.5l-0.3-1l0.9,0.4c1.4,0.7,3.5,2.4,3.8,3.1c0.8,1.8,0.1,2.9-2.7,4.2
			c-2,0.9-5.4,1.9-5.9,1.8C346.6,144.4,346.6,144.1,346.6,143.7L346.6,143.7z"/>
		<path class="st4" d="M351.9,145.5c-0.6-1.1-0.5-1.4,0.7-1.9c1.2-0.5,1.7-0.4,2.3,0.5c0.5,0.9,0.2,1.8-0.9,2.2
			C352.8,146.6,352.4,146.5,351.9,145.5z"/>
		<path class="st4" d="M359.8,143.6c-0.9-0.9-2-3.5-1.4-3.6c0.7-0.2,1.3,0.2,1.1,0.7c-0.3,0.8,0.8,2.4,1.8,2.7
			c1.8,0.6,3.4-0.4,3.3-2c0-0.8,0-0.8,0.4-0.3c1.1,1.3,1,3.8-0.3,4.1C363.8,145.6,360.8,144.6,359.8,143.6L359.8,143.6z"/>
		<path class="st4" d="M360.6,141.6c-0.1-0.4-0.2-0.8-0.1-1c0.1-0.4,1.7-0.6,2.5-0.4c0.8,0.3,0.9,1.4,0.3,2.1
			C362.5,143,360.9,142.6,360.6,141.6L360.6,141.6z"/>
		<path class="st4" d="M335.3,130.9c-4.8-5.1-6.1-6-8.8-5.9c-3.3,0.1-3.8,0-5.6-0.9c-2.1-1-4.8-3.3-4.6-3.8c0.2-0.5,1.5-1.1,1.9-0.8
			c1.5,1.2,2.3,1.5,3.8,1.7c0.9,0.1,1.8,0.1,1.9,0c0.8-0.5,1-1.1,0.7-1.9c-0.3-0.7-0.5-0.8-2.8-1.6c-1.7-0.6-2.7-1-3-1.4
			c-0.4-0.5-0.7-0.6-2.9-0.5c-2.2,0-2.7-0.1-5.7-1.1c-5.6-1.9-9.4-4.2-12.2-7.6c-2.9-3.5-3.8-5.9-2.2-6.2c1.4-0.2,2.2,0.4,5.3,3.9
			c0.9,1,2.5,2.5,3.5,3.3c3.8,3,10.2,4.9,10.8,3.1c0.1-0.2-0.9-1.2-2.1-2.3c-5.6-4.9-5.6-4.9-6.1-6.2c-0.6-1.6-0.5-1.7,0.4-1.9
			c0.7-0.2,0.9-0.1,2,0.8c0.7,0.5,1.6,1.4,1.9,1.8c1,1.3,4.5,5,6.3,6.7c1,1,2.6,2,4.4,3c3.7,2,6.2,4,9.2,7.2c2.9,3.1,5.9,6,8.1,7.5
			c0.8,0.6,1.6,1.4,1.6,1.7c0.2,0.9-0.6,2.1-1.8,2.8c-0.6,0.3-1.1,0.7-1.2,0.8C338.1,133.7,337.5,133.2,335.3,130.9L335.3,130.9z"/>
		<path class="st4" d="M356,138.1c-0.2-0.4-0.1-0.5,0.4-0.4c0.9,0.1,1.3-0.6,0.7-1.4c-0.5-0.7-0.5-0.7,0.1-0.5
			c1.2,0.4,2.4-1.1,1.7-2.1c-0.3-0.4-0.3-0.5,0.2-0.3c0.3,0.1,1.2,0.2,1.8,0.3c1.1,0.1,1.4,0.2,2.4,1.1c2.4,2.3,1.5,4.2-2.2,4.5
			C359.3,139.6,356.3,138.8,356,138.1L356,138.1z"/>
		<g>
			<path class="st4" d="M336.9,124.8c-1.4-1.3-3.5-3.4-4.8-4.8c-2.9-3.2-5.8-5.4-9.3-7.3c-3.2-1.7-5.6-3.8-9.4-8.3
				c-3.4-3.9-4.6-4.7-6.1-4.3c-1,0.3-1.3,1.3-0.7,2.9c0.4,1.1,0.9,1.7,2.7,3.3c4.8,4.2,5.3,4.7,5.3,4.9c-0.2,0.5-2.6,0-5.3-1.1
				c-3.2-1.4-4.8-2.6-8.1-6.3c-2.1-2.3-2.3-2.6-3.4-5.7c-0.6-1.8-1.3-3.7-1.4-4.3c-0.3-1.4,0.1-5.5,0.8-7.5c0.6-1.9,0.4-1.8,0.8-2.7
				c1.3,1.2,0.8,0.4,2.1,2.4c1.7,5.6,1.9,6.1,2.9,7.3c0.6,0.6,1.5,1.3,2.1,1.6l1.1,0.5l-1-1.7c-0.5-0.9-1-1.9-1-2.2
				c0-0.8,0.5-3.8,0.6-3.9c0.1,0,0.5,0.5,1,1.2c2.3,3.3,4.5,5.5,7.7,7.7l2.2,1.5l4.3,0.9c4.7,1,5.9,1.5,8.3,3.8
				c2.3,2.1,4.2,6.2,5.3,11.3c0.7,3.2,0.8,3.3,2.9,1.1c2.1-2.1,2.4-3.2,1.9-5.6c-0.4-1.8-0.4-2.2,0.2-3.3c0.8-1.8,1-1.8,1.6-0.2
				c0.4,1.1,1,1.8,2.4,3.1c1,0.9,2.1,2.2,2.4,2.7c0.6,1.2,0.8,0.4-1.7,7.4c-0.4,1.2-0.7,2.6-0.7,3.9l-0.1,2l-1.2,0.8
				c-0.7,0.4-1.3,0.9-1.4,1.1C339.8,127.4,339.6,127.3,336.9,124.8L336.9,124.8z"/>
		</g>
		<path class="st4" d="M343.4,123.7c0.1-1.8,0.2-3.6,0.4-3.6c0.1,0,0.6,1,1.3,2.3l1.2,2.4l-1.4,0l-1.4,0L343.4,123.7L343.4,123.7z"
			/>
		<path class="st4" d="M334.1,113c-0.7-3.2-1.7-5.7-3.3-8.4c-1.2-2.1-1.3-2.3-0.9-3.2c0.3-0.8,0.5-0.9,1.2-0.7
			c1.2,0.3,3.2,2.3,4.8,5c1.8,3.1,2.3,5.1,1.6,6.6c-0.5,1.1-2.4,3.4-2.7,3.2C334.8,115.4,334.4,114.3,334.1,113L334.1,113z"/>
		<path class="st6" d="M148.4,239.4c-0.3,2.1-1,2.8-0.6,3.8c0.3,0.6,0.7,0.7,3.3,2.4c3.6,2.4,3.6,2.2,1.1,4c-1.6,1.2-2.8,1.4-5,1
			l0,0c-1-0.2-2.6-0.8-3.6-1.3c-1.5-0.8-1.8-1.1-2.2-2.1c-0.4-1-0.3-1.4,0.2-2.6l0.6-1.4l-1.5-2.2c-1.9-2.8-2.8-5.5-3-10
			c-0.2-2.9-0.2-7.4,0-7.6c0.4-1.2,1.1-3,2.1-5.1c3.6-7.6,8.6-18.3,17.6-19.8c4.4-0.8,9.4,0.7,13,4c1.2,1.1,4.9,4.3,4.8,8.8
			c-0.1,6.8-8.4,10.9-9.2,11.3c-5.2,2.5-7.2,0.3-11.8,3.3c-0.7,0.5-6.4,4.3-6.3,8.9C148.1,236.2,148.7,237.2,148.4,239.4z"/>
		<g>
			<path d="M168.8,228.1c-0.8-1-1.1-2.1-1.1-3.6c0-1.6,0-1.6,3.4-6c1.4-1.8,1.7-2.3,1.9-3.9c0.3-2,0-2.6-1.3-3.5
				c-0.4-0.3-0.7-0.5-1.1-0.5c-0.2,0-0.4,0-0.7,0.1c-0.9,0.4-2,1.7-2.4,2.9c-0.3,0.8-2.4,3.9-3.2,4.5c-0.4,0.3-1,0.4-3,0.5
				c-3.4,0.2-4.1,0.4-4.3,2.4c-0.1,0.7-0.1,1.7,0,2.1c0,0.2,0,0.3,0,0.3c-0.1,0-0.3-0.1-0.7-0.5c-0.3-0.3-0.5-1.1-0.7-2.1
				c-0.2-1.5-0.2-1.8,0.2-2.4c0.6-0.9,2.2-1.5,3.9-1.5c0,0,0.6,0,0.7,0c1.8,0,2.4-0.5,2.7-2.5c0.3-2,1.9-4.1,4.2-5.8
				c1.7-1.2,2.2-1.9,1.3-3.2c-0.7-1-1.4-1.4-2.3-1.4c-0.7,0-1.5,0.3-2.4,0.9c-1.4,1-1.9,1.7-2.3,3.8c-0.1,0.7-0.5,1.5-0.7,1.7
				c-0.5,0.6-1.8,0.9-3.7,0.9c-0.3,0-0.7,0-1,0c-0.3,0-0.6,0-0.9,0c-0.6,0-1.3,0-1.6,0.2c0-0.1,0.1-0.3,0.2-0.5
				c0.2-0.4,0.4-0.6,1.9-0.9c2.2-0.5,2.6-0.8,3.4-3.4c0.5-1.6,0.8-2.2,2-3.3c1.3-1.2,1.5-1.6,1.3-2.5c-0.2-0.8-0.5-1.1-1.4-1.4
				c-0.7-0.3-1.3-0.4-1.9-0.4c-0.5,0-1,0.1-1.5,0.3c-1.1,0.5-3.1,3.5-3.5,5.2c-0.4,1.6-0.7,2.2-1.9,3.1c-1.9,1.5-2.4,2.4-2,4.1
				c0.3,1.2,0.2,1.5-0.1,1.9c-0.3,0.4-1.3,1.1-1.9,1.4c0.1-0.2,0.2-0.4,0.3-0.6c0.3-0.7,0.5-1.8,0.4-3.3c-0.1-2,0-2,1-3.2
				c2.8-3.3,2.9-3.5,3-5.8c0.1-2.4,0.4-3,2.7-4.7c1.6-1.2,1.8-1.3,3.7-1.7c0.7-0.1,1.2-0.2,1.7-0.2c0.9,0,1.8,0.2,3.7,0.6
				c3.8,0.9,5.5,1.7,6.8,3.3c0.8,1,0.9,1.2,0.8,2.1c-0.1,1.5,0.4,2,2.1,2.7c1.9,0.9,2.7,3,2.3,6.5c-0.4,3.3-1.3,5.1-4.9,9.5
				c-2.6,3.2-3.2,4.4-3.1,6.8C168.8,227.5,168.8,227.8,168.8,228.1z"/>
			<path class="st7" d="M161,195.9c0.8,0,1.7,0.2,3.6,0.6c3.8,0.8,5.4,1.6,6.7,3.2c0.8,1,0.8,1.1,0.8,1.9c-0.1,1.7,0.5,2.2,2.3,3
				c1.8,0.8,2.5,2.9,2.2,6.3c-0.4,3.2-1.3,5-4.8,9.4c-2.7,3.3-3.2,4.5-3.1,6.9c0,0,0,0,0,0c-0.4-0.8-0.6-1.7-0.6-2.8
				c0-1.5,0-1.5,3.4-5.8c1.5-1.8,1.7-2.4,1.9-4c0.3-2,0.1-2.7-1.4-3.8c-0.4-0.3-0.8-0.5-1.3-0.5c-0.2,0-0.5,0.1-0.8,0.2
				c-1,0.4-2.1,1.8-2.5,3c-0.2,0.8-2.4,3.8-3.1,4.4c-0.3,0.3-0.8,0.4-2.9,0.5c-3.5,0.2-4.3,0.4-4.5,2.6c-0.1,0.6-0.1,1.4,0,1.9
				c-0.1-0.1-0.1-0.1-0.2-0.2c-0.2-0.2-0.5-0.9-0.7-2c-0.2-1.4-0.2-1.7,0.2-2.2c0.6-0.8,2.1-1.4,3.7-1.4c0.1,0,0.2,0,0.2,0
				c0.2,0,0.3,0,0.5,0c1.9,0,2.6-0.6,2.9-2.7c0.3-1.9,1.8-4,4.1-5.6c1.7-1.3,2.4-2.1,1.4-3.6c-0.7-1-1.5-1.5-2.5-1.5
				c-0.8,0-1.6,0.3-2.6,1c-1.5,1-2,1.9-2.4,4c-0.1,0.7-0.4,1.4-0.6,1.6c-0.3,0.4-1.4,0.8-3.5,0.8c-0.3,0-0.7,0-1,0c-0.3,0-0.7,0-1,0
				c-0.6,0-0.9,0-1.2,0.1c0,0,0,0,0,0c0.1-0.3,0.2-0.4,1.7-0.8c2.3-0.5,2.7-0.9,3.6-3.6c0.5-1.5,0.8-2.1,1.9-3.2
				c1.2-1.2,1.6-1.6,1.4-2.7c-0.2-1-0.7-1.3-1.6-1.6c-0.8-0.3-1.4-0.4-2-0.4c-0.5,0-1,0.1-1.6,0.4c-1.2,0.6-3.2,3.8-3.6,5.4
				c-0.3,1.5-0.7,2.1-1.8,2.9c-2,1.5-2.5,2.5-2.1,4.4c0.2,1.1,0.2,1.4,0,1.7c-0.2,0.2-0.7,0.6-1.2,0.9c0.3-0.8,0.5-1.9,0.4-3.3
				c-0.1-1.9-0.1-1.9,0.9-3.1c2.8-3.4,2.9-3.6,3-6c0.1-2.3,0.4-2.8,2.6-4.5c1.5-1.2,1.7-1.3,3.5-1.6
				C159.9,196,160.5,195.9,161,195.9 M161,195.4c-0.5,0-1.1,0.1-1.8,0.2c-1.9,0.3-2.2,0.4-3.8,1.7c-2.3,1.8-2.6,2.4-2.8,4.9
				c-0.1,2.3-0.2,2.4-2.9,5.7c-1,1.3-1.1,1.4-1,3.4c0,1.4-0.1,2.5-0.4,3.1c-0.3,0.6-0.4,1.1-0.4,1.1c0,0,0,0,0,0
				c0.4,0,2-1.1,2.4-1.6c0.4-0.5,0.4-0.9,0.1-2.1c-0.4-1.7,0-2.4,1.9-3.9c1.2-0.9,1.6-1.6,2-3.2c0.4-1.6,2.3-4.6,3.3-5.1
				c0.4-0.2,0.9-0.3,1.3-0.3c0.5,0,1.1,0.1,1.8,0.4c0.9,0.3,1.1,0.5,1.3,1.3c0.2,0.8,0,1-1.2,2.3c-1.2,1.1-1.5,1.8-2,3.4
				c-0.8,2.5-1.1,2.8-3.2,3.2c-1.5,0.3-1.8,0.5-2,1c-0.3,0.6-0.3,0.9-0.1,0.9c0.1,0,0.2,0,0.3-0.1c0.1-0.1,0.7-0.1,1.5-0.1
				c0.3,0,0.6,0,0.9,0c0.4,0,0.7,0,1,0c2,0,3.4-0.4,3.9-1c0.2-0.3,0.6-1.1,0.7-1.8c0.4-2,0.9-2.7,2.2-3.7c0.9-0.6,1.6-0.9,2.3-0.9
				c0.8,0,1.5,0.4,2.1,1.3c0.7,1,0.5,1.6-1.3,2.9c-2.4,1.7-3.9,3.9-4.3,6c-0.3,1.8-0.7,2.2-2.4,2.2c-0.1,0-0.3,0-0.4,0
				c-0.1,0-0.2,0-0.3,0c-1.8,0-3.4,0.6-4.1,1.6c-0.5,0.7-0.5,1.1-0.3,2.6c0.2,1.1,0.5,1.9,0.8,2.3c0.3,0.4,0.6,0.6,0.9,0.6
				c0.2,0,0.3-0.2,0.2-0.6c-0.1-0.3-0.1-1.2,0-2c0.2-1.8,0.6-2,4.1-2.2c2.1-0.1,2.7-0.2,3.1-0.6c0.8-0.6,3-3.7,3.3-4.6
				c0.3-1.1,1.4-2.4,2.2-2.7c0.2-0.1,0.4-0.1,0.6-0.1c0.3,0,0.6,0.1,1,0.4c1.2,0.9,1.4,1.4,1.2,3.3c-0.2,1.6-0.4,2-1.8,3.8
				c-3.4,4.3-3.5,4.4-3.5,6.1c0,1.6,0.4,2.8,1.2,3.8h0c0.1,0.2,0.2,0.3,0.3,0.3c0.1,0,0.1-0.4,0.1-1.4c-0.1-2.3,0.4-3.4,3-6.6
				c3.6-4.4,4.5-6.3,4.9-9.6c0.4-3.6-0.4-5.9-2.5-6.8c-1.8-0.8-2.1-1.2-2-2.5c0.1-1,0-1.2-0.9-2.3c-1.4-1.7-3.1-2.5-7-3.4
				C162.8,195.6,161.8,195.4,161,195.4L161,195.4z"/>
		</g>
		<path class="st6" d="M140.3,222.6c-0.3-0.1-1.2-1-2.1-1.9c-1.8-1.9-2.1-2-4.3-2.2c-1.3-0.1-1.9-0.4-3.1-1.2
			c-0.8-0.6-1.5-1.3-1.6-1.6c-0.1-0.4,0.2-0.3,1.1,0.6c1.6,1.4,2.1,1.5,3.9,0.9c1.3-0.4,1.6-0.4,2.7,0c1,0.3,1.5,0.4,2.4,0.1
			c1.6-0.5,1.9-1.1,0.9-1.9c-1.3-1.1-2.6-1.4-4.5-1c-1.8,0.4-2.2,0.4-2.8-0.4c-0.7-0.7-0.6-0.8,0.6-0.5c1.1,0.2,1.1,0.2,2.4-0.8
			l1.3-1.1l1.6,0.6c1.9,0.7,2,0.7,2.4-0.2c0.5-1,0.3-1.3-1.3-2.2c-2-1.1-3.7-3.6-3.3-4.8c0.2-0.4,0.2-0.4,0.3,0
			c0.2,0.7,1.8,2.5,2.7,3c0.4,0.2,1.3,0.5,2.1,0.7c0.9,0.2,1.5,0.6,2.1,1.2c0.9,1.1,1.6,1.3,2.8,0.8c1.1-0.4,1.5-0.1,1.4,1.3
			c0,0.6-0.4,1.4-1,2c-1,1.2-1.4,2.1-1.6,4c-0.1,0.7-0.3,1.7-0.6,2.1C144.2,221.8,141.5,223.2,140.3,222.6L140.3,222.6z"/>
		<path class="st6" d="M125.4,169.6c1.6,4.4,3.4,7.8,4.8,10.2c1.5,2.6,2.5,3.6,2.8,4c0.8,0.8,2.7,2.8,7.5,5.2
			c1.1,0.5,4.6,2.2,9.9,3.7c4.7,1.3,8.3,1.7,12.1,2.1c4.7,0.5,7.1,0.8,10.3,0.5c2-0.2,6.2-0.7,11-2.7c2.5-1,5.7-2.4,8.8-5.3
			c1.1-1,1.2-1.3,3.3-3.7c2.7-3,5.5-5.7,6.9-7.1c5.2-4.8,10.8-7.2,13.3-8.3c3.1-1.3,7.6-3.2,13.9-3.6c4.6-0.3,8.2,0.4,9.3,0.6
			c4.5,0.9,6.7,1.3,9.1,3c0.9,0.6,1.7,1.4,2.3,1.1c0.9-0.5,0.5-3.1,0-5.3c0,0-3.1,1.3-4.8,0.9c-1.8-0.4-1.5-3-1.5-3
			s-3.1,1.2-5.8,0.9c-2.7-0.4-4.5-3.5-4.5-3.5s-1.8,1.8-5.2,2.6c-3.4,0.8-7.6-2.9-7.6-2.9s-0.2,2.7-2.1,4.4
			c-1.9,1.7-5.8-1.8-5.8-1.8s1,3.1-0.6,4.8c-1.6,1.7-6.9-1.4-6.9-1.4s0.8,4.1-0.6,5.7s-7.4-1.4-7.4-1.4s1.2,4.1,0.4,6
			c-0.8,1.9-6.6,0-6.6,0s3.1,3.3,2.6,5.1c-0.5,1.7-7.1-0.8-7.1-0.8s1.5,5.2,0.3,6.8c-1.3,1.6-5.9-2.9-5.9-2.9s1.1,6.4-0.9,7.1
			c-2,0.7-6.9-5-6.9-5s-1.3,5.8-3.3,6.5c-2,0.7-6.3-5.6-6.3-5.6s-0.9,5-3.8,5.3c-2.9,0.3-4.9-5.6-4.9-5.6s-1.9,2.4-4.6,2.9
			s-3.1-5.4-3.1-5.4s-4.5,2.7-6.2,2s-1.5-6.9-1.5-6.9s-3.1,1.2-5.4,0.9c-2.3-0.3-0.5-6.8-0.5-6.8L125.4,169.6z"/>
	</g>
	<g class="st0">
		<polygon class="st8" points="313.1,243.5 313.1,301.1 255.5,301.1 255.5,250.7 262.7,250.7 262.7,243.5 		"/>
		<rect x="255.5" y="243.5" class="st8" width="7.2" height="7.2"/>
	</g>
	<g class="st0">
		<polygon class="st8" points="244,243.5 244,301.1 186.4,301.1 186.4,250.7 193.6,250.7 193.6,243.5 		"/>
		<rect x="186.4" y="243.5" class="st8" width="7.2" height="7.2"/>
	</g>
	<rect x="201.5" y="111.1" class="st7" width="96.4" height="113.4"/>
</g>
<g id="Layer_4">
	<g id="XMLID_1_">
		<g>
			<path class="st7" d="M488,15.9v400H9.5v-400H488z M429.3,149.4L429.3,149.4c0-6.3-3.1-12.1-8.2-15.7h0l-59.4-40.9c0,0,0,0,0,0
				c-9.5-6.6-20.8-10.1-32.4-10.1H175.5c-11.9,0-23.6,3.5-33.5,10.1L80.3,134v0c-5.1,3.4-8.1,9.1-8.1,15.2v0v64.3v0
				c0,6.9,3.2,13.5,8.6,17.8v0l150.1,129.2v0h0c11.2,8.9,27.1,8.9,38.3,0v0l151.5-129.2v0c5.5-4.3,8.6-10.9,8.6-17.8l0,0V149.4z"/>
			<path class="st9" d="M429.3,149.4L429.3,149.4l0,64l0,0c0,6.9-3.2,13.5-8.6,17.8v0L269.1,360.5v0c-11.2,8.9-27.1,8.9-38.3,0h0v0
				L80.8,231.3v0c-5.4-4.3-8.6-10.9-8.6-17.8v0v-64.3v0c0-6.1,3.1-11.8,8.1-15.2v0L142,92.9c9.9-6.6,21.6-10.1,33.5-10.1h153.9
				c11.6,0,22.8,3.5,32.4,10.1c0,0,0,0,0,0l59.4,40.9h0C426.2,137.3,429.3,143.2,429.3,149.4z"/>
		</g>
		<g>
			<rect x="9.5" y="15.9" class="st10" width="478.5" height="400"/>
			<path class="st10" d="M429.3,149.4L429.3,149.4c0-6.3-3.1-12.1-8.2-15.7h0l-59.4-40.9c0,0,0,0,0,0c-9.5-6.6-20.8-10.1-32.4-10.1
				H175.5c-11.9,0-23.6,3.5-33.5,10.1L80.3,134v0c-5.1,3.4-8.1,9.1-8.1,15.2v0v64.3v0c0,6.9,3.2,13.5,8.6,17.8v0l150.1,129.2v0h0
				c11.2,8.9,27.1,8.9,38.3,0v0l151.5-129.2v0c5.5-4.3,8.6-10.9,8.6-17.8l0,0V149.4z"/>
		</g>
	</g>
	
		<rect x="323.9" y="235.8" transform="matrix(0.7643 -0.6448 0.6448 0.7643 -75.3507 298.192)" class="st7" width="92.7" height="32.7"/>
	<rect x="78.2" y="111" transform="matrix(0.8305 -0.557 0.557 0.8305 -48.2337 88.8803)" class="st7" width="87.4" height="25.4"/>
	<g>
		
			<rect x="297.7" y="169.4" transform="matrix(-1 -1.224647e-16 1.224647e-16 -1 615.4983 393.1567)" class="st7" width="20.2" height="54.4"/>
		<text transform="matrix(6.123234e-17 1 -1 6.123234e-17 310.0117 171.6349)" class="st11 st12">POWER UP</text>
		<rect x="300.1" y="170.4" transform="matrix(-1 -1.224647e-16 1.224647e-16 -1 605.8316 393.4067)" width="5.6" height="52.7"/>
		<rect x="300.1" y="171.9" class="st13" width="5.6" height="3"/>
		<rect x="300.1" y="183.6" class="st14" width="5.6" height="3"/>
		<rect x="300.1" y="195.3" class="st14" width="5.6" height="3"/>
		<rect x="300.1" y="207" class="st15" width="5.6" height="3"/>
		<rect x="300.1" y="218.6" class="st15" width="5.6" height="3"/>
		<g>
			<g>
				<line class="st16" x1="307.8" y1="221.6" x2="307.8" y2="173.1"/>
				<g>
					<polygon points="309.6,175.1 307.8,173.4 306.1,175.1 306.1,173.6 307.8,171.9 309.6,173.6 					"/>
				</g>
			</g>
		</g>
	</g>
	<g>
		<rect x="181.1" y="110.3" class="st7" width="20.2" height="54.4"/>
		<text transform="matrix(-1.836970e-16 -1 1 -1.836970e-16 188.9289 160.4364)" class="st11 st12">LEVEL UP</text>
		<rect x="193.2" y="111" width="5.6" height="52.7"/>
		
			<rect x="193.2" y="159.2" transform="matrix(-1 -1.224647e-16 1.224647e-16 -1 392.0488 321.3728)" class="st13" width="5.6" height="3"/>
		
			<rect x="193.2" y="147.5" transform="matrix(-1 -1.224647e-16 1.224647e-16 -1 392.0488 297.9923)" class="st13" width="5.6" height="3"/>
		
			<rect x="193.2" y="135.8" transform="matrix(-1 -1.224647e-16 1.224647e-16 -1 392.0488 274.6118)" class="st13" width="5.6" height="3"/>
		
			<rect x="193.2" y="124.1" transform="matrix(-1 -1.224647e-16 1.224647e-16 -1 392.0488 251.2313)" class="st14" width="5.6" height="3"/>
		
			<rect x="193.2" y="112.4" transform="matrix(-1 -1.224647e-16 1.224647e-16 -1 392.0488 227.8507)" class="st15" width="5.6" height="3"/>
		<g>
			<g>
				<line class="st16" x1="191.1" y1="113.6" x2="191.1" y2="162.2"/>
				<g>
					<polygon points="189.4,115.7 191.1,113.9 192.9,115.7 192.9,114.2 191.1,112.4 189.4,114.2 					"/>
				</g>
			</g>
		</g>
	</g>
</g>
<g id="Layer_2">
	<g>
		<line class="st10" x1="201.5" y1="111.1" x2="201.5" y2="224.5"/>
		<line class="st10" x1="201.5" y1="224.5" x2="297.9" y2="224.5"/>
		<line class="st10" x1="297.9" y1="111.1" x2="297.9" y2="224.5"/>
		<line class="st10" x1="201.5" y1="111.1" x2="297.9" y2="111.1"/>
	</g>
	<g>
		<g id="XMLID_2_">
			<g>
				<line class="st10" x1="193.6" y1="250.7" x2="193.6" y2="243.5"/>
				<line class="st10" x1="186.4" y1="250.7" x2="193.6" y2="250.7"/>
				<line class="st10" x1="186.4" y1="243.5" x2="193.6" y2="243.5"/>
				<line class="st10" x1="186.4" y1="250.7" x2="186.4" y2="243.5"/>
				<line class="st10" x1="244" y1="301.1" x2="186.4" y2="301.1"/>
				<line class="st10" x1="244" y1="243.5" x2="244" y2="301.1"/>
				<line class="st10" x1="193.6" y1="243.5" x2="244" y2="243.5"/>
				<line class="st10" x1="186.4" y1="301.1" x2="186.4" y2="250.7"/>
			</g>
		</g>
	</g>
	<g>
		<circle class="st17" cx="357.4" cy="201.8" r="5"/>
		<path class="st17" d="M348.6,204.6v-5.7"/>
		<path class="st17" d="M365.2,210.6h-15.6"/>
		<path class="st17" d="M366.2,204.6v-5.7"/>
		<path class="st17" d="M365.2,193h-15.6"/>
		<circle class="st17" cx="388.6" cy="179.1" r="5"/>
		<path class="st17" d="M379.8,181.9v-5.7"/>
		<path class="st17" d="M396.4,187.9h-15.6"/>
		<path class="st17" d="M397.4,181.9v-5.7"/>
		<path class="st17" d="M396.4,170.3h-15.6"/>
		<path class="st17" d="M351.1,189.8h1.6"/>
		<path class="st17" d="M350.8,190.8l1.1-3.4l1.1,3.4"/>
		<path class="st17" d="M351.2,216v-3.4h0.8l0.5,0.2l0.3,0.3l0.2,0.3l0.2,0.7v0.5l-0.2,0.6l-0.2,0.3l-0.3,0.3l-0.5,0.2H351.2"/>
		<path class="st17" d="M354.2,212.6h2"/>
		<path class="st17" d="M355.1,216v-3.4"/>
		<path class="st17" d="M357.1,215.9l0.5,0.2h0.8l0.3-0.2l0.2-0.2l0.2-0.3V215l-0.2-0.3l-0.2-0.2l-0.3-0.2l-0.7-0.2l-0.3-0.2
			l-0.2-0.2l-0.2-0.3v-0.3l0.2-0.3l0.2-0.2l0.3-0.2h0.8l0.5,0.2"/>
		<path class="st17" d="M360.5,216v-3.4l1.1,2.4l1.1-2.4v3.4"/>
		<path class="st17" d="M364.4,214.7h2.6"/>
		<path class="st17" d="M370.1,212.6h-0.6l-0.3,0.2l-0.2,0.2l-0.3,0.5l-0.2,0.7v1.3l0.2,0.3l0.2,0.2l0.3,0.2h0.6l0.3-0.2l0.2-0.2
			l0.2-0.3v-0.8l-0.2-0.3l-0.2-0.2l-0.3-0.2h-0.6l-0.3,0.2l-0.2,0.2l-0.2,0.3"/>
		<path class="st17" d="M383.6,166.4l0.5,0.2l0.2,0.2l0.2,0.3v0.5l-0.2,0.3L384,168l-0.3,0.2h-1.3v-3.4h1.1l0.3,0.2l0.2,0.2l0.2,0.3
			v0.3L384,166l-0.2,0.2L383.6,166.4h-1.1"/>
		<path class="st17" d="M382.4,193.3v-3.4h0.8l0.5,0.2l0.3,0.3l0.2,0.3l0.2,0.6v0.5l-0.2,0.7l-0.2,0.3l-0.3,0.3l-0.5,0.2H382.4"/>
		<path class="st17" d="M385.3,189.9h2"/>
		<path class="st17" d="M386.3,193.3v-3.4"/>
		<path class="st17" d="M388.3,193.2l0.5,0.2h0.8l0.3-0.2l0.2-0.2l0.2-0.3v-0.3l-0.2-0.3l-0.2-0.2l-0.3-0.2l-0.6-0.2l-0.3-0.2
			l-0.2-0.2l-0.2-0.3v-0.3l0.2-0.3l0.2-0.2l0.3-0.2h0.8l0.5,0.2"/>
		<path class="st17" d="M391.7,193.3v-3.4l1.1,2.4l1.1-2.4v3.4"/>
		<path class="st17" d="M395.6,192h2.6"/>
		<path class="st17" d="M401.3,189.9h-0.7l-0.3,0.2l-0.2,0.2l-0.3,0.5l-0.2,0.6v1.3l0.2,0.3l0.2,0.2l0.3,0.2h0.7l0.3-0.2l0.2-0.2
			l0.2-0.3v-0.8l-0.2-0.3l-0.2-0.2l-0.3-0.2h-0.7l-0.3,0.2l-0.2,0.2l-0.2,0.3"/>
		<rect x="379.9" y="170.3" class="st17" width="17.6" height="17.6"/>
		<rect x="348.7" y="193" class="st17" width="17.5" height="17.5"/>
	</g>
	<g>
		<circle class="st17" cx="236.8" cy="335" r="0.4"/>
		<circle class="st17" cx="236.8" cy="335" r="0.7"/>
		<circle class="st17" cx="236.8" cy="335" r="1.1"/>
		<circle class="st17" cx="236.8" cy="335" r="1.4"/>
		<circle class="st17" cx="236.8" cy="335" r="1.8"/>
		<circle class="st17" cx="236.8" cy="335" r="2.2"/>
		<circle class="st17" cx="236.8" cy="335" r="2.5"/>
		<circle class="st17" cx="236.8" cy="335" r="3.1"/>
		<circle class="st17" cx="236.8" cy="335" r="3.7"/>
		<path class="st17" d="M253.8,338.1l-7.1-7.1"/>
		<path class="st17" d="M255.8,338.1h-2"/>
		<path class="st17" d="M257.9,336.1l-2,2"/>
		<path class="st17" d="M257.9,334v2"/>
		<path class="st17" d="M250.8,326.9l7.1,7.1"/>
		<path class="st17" d="M248.7,326.9h2"/>
		<path class="st17" d="M246.7,329l2-2"/>
		<path class="st17" d="M246.7,331v-2"/>
		<path class="st17" d="M241.6,334l2-2"/>
		<path class="st17" d="M241.6,336.1v-2"/>
		<path class="st17" d="M245.7,332h-2"/>
		<path class="st17" d="M252.8,339.1l-7.1-7.1"/>
		<path class="st17" d="M252.8,341.2v-2"/>
		<path class="st17" d="M250.8,343.2l2-2"/>
		<path class="st17" d="M248.7,343.2h2"/>
		<path class="st17" d="M241.6,336.1l7.1,7.1"/>
		<path class="st17" d="M244.9,348.9l0.5,0.2h0.8l0.3-0.2l0.2-0.2l0.2-0.3V348l-0.2-0.3l-0.2-0.2l-0.3-0.2l-0.7-0.2l-0.3-0.2
			l-0.2-0.2l-0.2-0.3v-0.3l0.2-0.3l0.2-0.2l0.3-0.2h0.8l0.5,0.2"/>
		<path class="st17" d="M248.3,349v-3.4"/>
		<path class="st17" d="M248.3,347.2h2"/>
		<path class="st17" d="M250.3,349v-3.4"/>
		<path class="st17" d="M251.9,349v-3.4"/>
		<path class="st17" d="M253,345.6h2"/>
		<path class="st17" d="M254,349v-3.4"/>
		<path class="st17" d="M257.9,349h-2"/>
		<path class="st17" d="M256.9,349v-3.4l-0.3,0.5l-0.3,0.3l-0.3,0.2"/>
	</g>
	<g>
		<line class="st10" x1="420.1" y1="133.8" x2="360.7" y2="92.8"/>
		<path class="st10" d="M360.7,92.8C360.7,92.8,360.7,92.8,360.7,92.8c-9.5-6.6-20.8-10.1-32.4-10.1"/>
		<line class="st10" x1="328.4" y1="82.7" x2="174.5" y2="82.7"/>
		<path class="st10" d="M174.5,82.7c-11.9,0-23.6,3.5-33.5,10.1"/>
		<line class="st10" x1="141" y1="92.9" x2="79.3" y2="134"/>
		<path class="st10" d="M79.3,134c-5.1,3.4-8.1,9.1-8.1,15.2"/>
		<polyline class="st10" points="71.1,149.2 71.1,149.2 71.1,213.4 		"/>
		<path class="st10" d="M71.1,213.5c0,6.9,3.2,13.5,8.6,17.8"/>
		<line class="st10" x1="79.8" y1="231.3" x2="229.9" y2="360.5"/>
		<line class="st10" x1="428.3" y1="213.4" x2="428.3" y2="149.4"/>
		<path class="st10" d="M428.3,149.4c0-6.3-3.1-12.1-8.2-15.7"/>
		<line class="st10" x1="268.1" y1="360.5" x2="419.7" y2="231.3"/>
		<path class="st10" d="M419.7,231.3c5.5-4.3,8.6-10.9,8.6-17.8"/>
		<path class="st10" d="M229.9,360.5c11.2,8.9,27.1,8.9,38.3,0"/>
	</g>
	<g>
		<line class="st10" x1="221.4" y1="91.2" x2="278.1" y2="91.2"/>
		<line class="st10" x1="221.4" y1="99.7" x2="278.1" y2="99.7"/>
		<path class="st10" d="M221.4,91.2L221.4,91.2c-2.4,0-4.3,1.9-4.3,4.3c0,2.3,1.9,4.2,4.2,4.2h0"/>
		<path class="st10" d="M278.1,99.7c2.4,0,4.3-1.9,4.2-4.3c0-2.3-1.9-4.2-4.2-4.2"/>
	</g>
	<g id="XMLID_6_">
		<g>
			<line class="st10" x1="262.7" y1="250.7" x2="262.7" y2="243.5"/>
			<line class="st10" x1="255.5" y1="250.7" x2="262.7" y2="250.7"/>
			<line class="st10" x1="313.1" y1="301.1" x2="255.5" y2="301.1"/>
			<line class="st10" x1="313.1" y1="243.5" x2="313.1" y2="301.1"/>
			<line class="st10" x1="262.7" y1="243.5" x2="313.1" y2="243.5"/>
			<line class="st10" x1="255.5" y1="243.5" x2="262.7" y2="243.5"/>
			<line class="st10" x1="255.5" y1="250.7" x2="255.5" y2="243.5"/>
			<line class="st10" x1="255.5" y1="301.1" x2="255.5" y2="250.7"/>
		</g>
	</g>
	<g>
		<circle class="st10" cx="130.7" cy="145.1" r="5"/>
		<path class="st10" d="M121.9,147.9v-5.7"/>
		<path class="st10" d="M138.5,153.9h-15.6"/>
		<path class="st10" d="M139.5,147.9v-5.7"/>
		<path class="st10" d="M138.5,136.3h-15.6"/>
		<circle class="st10" cx="130.7" cy="190.4" r="5"/>
		<path class="st10" d="M121.9,193.3v-5.7"/>
		<path class="st10" d="M138.5,199.2h-15.6"/>
		<path class="st10" d="M139.5,193.3v-5.7"/>
		<path class="st10" d="M138.5,181.7h-15.6"/>
		<circle class="st17" cx="99.5" cy="167.8" r="5"/>
		<path class="st17" d="M90.7,170.6v-5.7"/>
		<path class="st17" d="M107.3,176.6H91.7"/>
		<path class="st17" d="M108.3,170.6v-5.7"/>
		<path class="st17" d="M107.3,159H91.7"/>
		<circle class="st17" cx="161.8" cy="167.8" r="5"/>
		<path class="st17" d="M153.1,170.6v-5.7"/>
		<path class="st17" d="M169.6,176.6H154"/>
		<path class="st17" d="M170.6,170.6v-5.7"/>
		<path class="st17" d="M169.6,159H154"/>
		<path class="st10" d="M124.9,130.8v2.8l0.2,0.3l0.2,0.2l0.3,0.2h0.6l0.3-0.2l0.2-0.2l0.2-0.3v-2.8"/>
		<path class="st10" d="M124.5,159.3v-3.4h0.8l0.5,0.2l0.3,0.3l0.2,0.3l0.2,0.7v0.5l-0.2,0.6l-0.2,0.3l-0.3,0.3l-0.5,0.2H124.5"/>
		<path class="st10" d="M127.4,155.9h2"/>
		<path class="st10" d="M128.4,159.3v-3.4"/>
		<path class="st10" d="M130.3,159.2l0.5,0.2h0.8l0.3-0.2l0.2-0.2l0.2-0.3v-0.3l-0.2-0.3l-0.2-0.2l-0.3-0.2l-0.6-0.2l-0.3-0.2
			l-0.2-0.2l-0.2-0.3v-0.3l0.2-0.3l0.2-0.2l0.3-0.2h0.8l0.5,0.2"/>
		<path class="st10" d="M133.7,159.3v-3.4l1.1,2.4l1.1-2.4v3.4"/>
		<path class="st10" d="M137.6,158h2.6"/>
		<path class="st10" d="M143.3,155.9h-0.7l-0.3,0.2l-0.2,0.2l-0.3,0.5l-0.2,0.7v1.3l0.2,0.3l0.2,0.2l0.3,0.2h0.7l0.3-0.2l0.2-0.2
			l0.2-0.3v-0.8l-0.2-0.3l-0.2-0.2l-0.3-0.2h-0.7l-0.3,0.2l-0.2,0.2l-0.2,0.3"/>
		<path class="st10" d="M124.5,179.5v-3.4h0.8l0.5,0.2l0.3,0.3l0.2,0.3l0.2,0.6v0.5l-0.2,0.6l-0.2,0.3l-0.3,0.3l-0.5,0.2H124.5"/>
		<path class="st10" d="M124.5,204.7v-3.4h0.8l0.5,0.2l0.3,0.3l0.2,0.3l0.2,0.6v0.5l-0.2,0.6l-0.2,0.3l-0.3,0.3l-0.5,0.2H124.5"/>
		<path class="st10" d="M127.4,201.3h2"/>
		<path class="st10" d="M128.4,204.7v-3.4"/>
		<path class="st10" d="M130.3,204.5l0.5,0.2h0.8l0.3-0.2l0.2-0.2l0.2-0.3v-0.3l-0.2-0.3l-0.2-0.2l-0.3-0.2l-0.7-0.2l-0.3-0.2
			l-0.2-0.2l-0.2-0.3v-0.3l0.2-0.3l0.2-0.2l0.3-0.2h0.8l0.5,0.2"/>
		<path class="st10" d="M133.8,204.7v-3.4l1.1,2.4l1.1-2.4v3.4"/>
		<path class="st10" d="M137.7,203.4h2.6"/>
		<path class="st10" d="M143.4,201.3h-0.6l-0.3,0.2l-0.2,0.2l-0.3,0.5l-0.2,0.6v1.3l0.2,0.3l0.2,0.2l0.3,0.2h0.7l0.3-0.2l0.2-0.2
			l0.2-0.3v-0.8l-0.2-0.3l-0.2-0.2l-0.3-0.2h-0.7l-0.3,0.2l-0.2,0.2l-0.2,0.3"/>
		<path class="st17" d="M94.9,156.8h-1.6v-3.4"/>
		<path class="st17" d="M93.3,182v-3.4h0.8l0.5,0.2l0.3,0.3l0.2,0.3l0.2,0.7v0.5l-0.2,0.7l-0.2,0.3l-0.3,0.3l-0.5,0.2H93.3"/>
		<path class="st17" d="M96.2,178.6h2"/>
		<path class="st17" d="M97.2,182v-3.4"/>
		<path class="st17" d="M99.1,181.8l0.5,0.2h0.8l0.3-0.2l0.2-0.2l0.2-0.3V181l-0.2-0.3l-0.2-0.2l-0.3-0.2l-0.7-0.2l-0.3-0.2
			l-0.2-0.2l-0.2-0.3v-0.3l0.2-0.3l0.2-0.2l0.3-0.2h0.8l0.5,0.2"/>
		<path class="st17" d="M102.6,182v-3.4l1.1,2.4l1.1-2.4v3.4"/>
		<path class="st17" d="M106.5,180.7h2.6"/>
		<path class="st17" d="M112.2,178.6h-0.6l-0.3,0.2l-0.2,0.2l-0.3,0.5l-0.2,0.7v1.3l0.2,0.3l0.2,0.2l0.3,0.2h0.6l0.3-0.2l0.2-0.2
			l0.2-0.3v-0.8l-0.2-0.3l-0.2-0.2l-0.3-0.2h-0.6l-0.3,0.2l-0.2,0.2l-0.2,0.3"/>
		<path class="st17" d="M157.6,156.8l-1.1-1.6"/>
		<path class="st17" d="M155.6,156.8v-3.4h1.3l0.3,0.2l0.2,0.2l0.2,0.3v0.5l-0.2,0.3l-0.2,0.2l-0.3,0.2h-1.3"/>
		<path class="st17" d="M155.6,182v-3.4h0.8l0.5,0.2l0.3,0.3l0.2,0.3l0.2,0.7v0.5l-0.2,0.7l-0.2,0.3l-0.3,0.3l-0.5,0.2H155.6"/>
		<path class="st17" d="M158.6,178.6h2"/>
		<path class="st17" d="M159.6,182v-3.4"/>
		<path class="st17" d="M161.5,181.8l0.5,0.2h0.8l0.3-0.2l0.2-0.2l0.2-0.3V181l-0.2-0.3l-0.2-0.2l-0.3-0.2l-0.6-0.2l-0.3-0.2
			l-0.2-0.2l-0.2-0.3v-0.3l0.2-0.3l0.2-0.2l0.3-0.2h0.8l0.5,0.2"/>
		<path class="st17" d="M164.9,182v-3.4l1.1,2.4l1.1-2.4v3.4"/>
		<path class="st17" d="M168.8,180.7h2.6"/>
		<path class="st17" d="M174.5,178.6h-0.7l-0.3,0.2l-0.2,0.2l-0.3,0.5l-0.2,0.7v1.3l0.2,0.3l0.2,0.2l0.3,0.2h0.7l0.3-0.2l0.2-0.2
			l0.2-0.3v-0.8l-0.2-0.3l-0.2-0.2l-0.3-0.2h-0.7l-0.3,0.2l-0.2,0.2l-0.2,0.3"/>
		<rect x="90.7" y="159" class="st17" width="17.6" height="17.6"/>
		<rect x="121.9" y="136.3" class="st17" width="17.6" height="17.6"/>
		<rect x="153.1" y="159" class="st17" width="17.6" height="17.6"/>
		<rect x="121.9" y="181.7" class="st17" width="17.6" height="17.6"/>
	</g>
</g>
<g id="Layer_5">
	<text transform="matrix(1.0978 -0.8759 0.6237 0.7817 335.2354 280.3883)" class="st18 st19">DEFCON</text>
	<text transform="matrix(0.8336 -0.5524 0.5524 0.8336 93.2868 155.9919)" class="st20 st21">DC801</text>
	<text transform="matrix(0.7729 -0.6299 0.6318 0.7752 354.1492 281.922)" class="st22 st23 st24"></text>
</g>
</svg>
