<?xml version="1.0" standalone="no"?>
 <!DOCTYPE svg PUBLIC "-//W3C//DTD SVG 1.1//EN" 
 "http://www.w3.org/Graphics/SVG/1.1/DTD/svg11.dtd"> 
<svg xmlns="http://www.w3.org/2000/svg" version="1.1" 
    width="27.94cm" height="21.59cm" viewBox="0 0 110000 85000 ">
<title>SVG Picture created as dragon-Edge.Cuts.svg date 2018/04/06 22:07:41 </title>
  <desc>Picture generated by PCBNEW </desc>
<g style="fill:#000000; fill-opacity:1;stroke:#000000; stroke-opacity:1;
stroke-linecap:round; stroke-linejoin:round; "
 transform="translate(0 0) scale(1 1)">
</g>
<g style="fill:#000000; fill-opacity:0.0; 
stroke:#000000; stroke-width:-0.000393701; stroke-opacity:1; 
stroke-linecap:round; stroke-linejoin:round;">
</g>
<g style="fill:#000000; fill-opacity:0.0; 
stroke:#000000; stroke-width:59.0551; stroke-opacity:1; 
stroke-linecap:round; stroke-linejoin:round;">
<path d="M49606 26968
L49606 25393
" />
<path d="M61417 26968
L49606 26968
" />
<path d="M61417 25393
L61417 26968
" />
<path d="M49606 25393
L61417 25393
" />
<path d="M59448.8 23661.4 A551.181 551.181 0.0 0 0 59448.8 22559.1 " />
<path d="M51574.8 22559.1 A551.181 551.181 0.0 0 0 51574.8 23661.4 " />
<path d="M51574 23661
L59448 23661
" />
<path d="M51574 22559
L59448 22559
" />
</g>
<g style="fill:#000000; fill-opacity:0.0; 
stroke:#000000; stroke-width:78.7402; stroke-opacity:1; 
stroke-linecap:round; stroke-linejoin:round;">
<path d="M55570 60890
L56961 60659
" />
<path d="M54180 60658
L55570 60890
" />
<path d="M52912 59961
L54180 60658
" />
<path d="M52914 59961
L52913 59961
" />
<path d="M63492 55473
L68753 50986
" />
<path d="M52915 59961
L52915 59961
" />
<path d="M32065 42013
L37277 46499
" />
<path d="M52915 59960
L52915 59960
" />
<path d="M58230 59964
L58230 59963
" />
<path d="M58230 59960
L63492 55473
" />
<path d="M52915 59961
L52914 59961
" />
<path d="M37277 46499
L42490 50986
" />
<path d="M42490 50986
L47702 55473
" />
<path d="M52915 59961
L52915 59961
" />
<path d="M52913 59961
L52912 59961
" />
<path d="M32065 42013
L32065 42013
" />
<path d="M52915 59960
L52915 59961
" />
<path d="M58230 59961
L58230 59960
" />
<path d="M52914 59961
L52914 59961
" />
<path d="M58230 59962
L58230 59961
" />
<path d="M58230 59963
L58230 59962
" />
<path d="M47702 55473
L52915 59960
" />
<path d="M56961 60659
L58230 59964
" />
<path d="M80475 39535
L80474 39535
" />
<path d="M80473 30639
L80473 30639
" />
<path d="M80474 39534
L80474 39534
" />
<path d="M80474 39535
L80474 39534
" />
<path d="M80159 40911
L80394 40245
" />
<path d="M68753 50986
L74015 46499
" />
<path d="M79276 42013
L79276 42014
" />
<path d="M79276 42013
L79276 42013
" />
<path d="M80473 35086
L80473 32863
" />
<path d="M80473 37310
L80473 35086
" />
<path d="M80473 32863
L80473 30639
" />
<path d="M79276 42014
L79276 42014
" />
<path d="M80473 39534
L80473 37310
" />
<path d="M79783 41509
L80159 40911
" />
<path d="M80474 39534
L80473 39534
" />
<path d="M79276 42014
L79783 41509
" />
<path d="M80394 40245
L80475 39535
" />
<path d="M79276 42013
L79276 42013
" />
<path d="M74015 46499
L79276 42013
" />
<path d="M55905 21378
L50561 21378
" />
<path d="M42788 21738
L41642 22179
" />
<path d="M71087 22778
L71086 22778
" />
<path d="M71086 22777
L71086 22777
" />
<path d="M67785 21469
L66591 21378
" />
<path d="M71086 22777
L70051 22174
" />
<path d="M71086 22778
L71086 22777
" />
<path d="M45218 21378
L43986 21469
" />
<path d="M66591 21378
L61248 21378
" />
<path d="M31997 28499
L31997 28499
" />
<path d="M40566 22786
L38424 24214
" />
<path d="M61248 21378
L55905 21378
" />
<path d="M68945 21736
L67785 21469
" />
<path d="M31997 28500
L31997 28500
" />
<path d="M31997 28499
L31997 28500
" />
<path d="M31997 28499
L31997 28499
" />
<path d="M34139 27071
L31997 28499
" />
<path d="M43986 21469
L42788 21738
" />
<path d="M70051 22174
L68945 21736
" />
<path d="M36282 25643
L34139 27071
" />
<path d="M38424 24214
L36282 25643
" />
<path d="M41642 22179
L40566 22786
" />
<path d="M50561 21378
L45218 21378
" />
<path d="M32065 42014
L32065 42013
" />
<path d="M32065 42014
L32065 42014
" />
<path d="M31183 40911
L31559 41509
" />
<path d="M30949 40245
L31183 40911
" />
<path d="M31997 28500
L31523 28908
" />
<path d="M30868 39534
L30868 39534
" />
<path d="M30868 32841
L30868 35072
" />
<path d="M30868 39534
L30868 39534
" />
<path d="M30868 30609
L30868 30610
" />
<path d="M30868 30609
L30868 30609
" />
<path d="M31523 28908
L31168 29412
" />
<path d="M31559 41509
L32065 42014
" />
<path d="M30945 29987
L30868 30609
" />
<path d="M30868 39535
L30949 40245
" />
<path d="M30868 39534
L30868 39535
" />
<path d="M30868 35072
L30868 37303
" />
<path d="M30868 30610
L30868 32841
" />
<path d="M30868 30609
L30868 30609
" />
<path d="M31168 29412
L30945 29987
" />
<path d="M30868 30610
L30868 30610
" />
<path d="M30868 37303
L30868 39534
" />
<path d="M30868 39535
L30868 39535
" />
<path d="M32065 42013
L32065 42013
" />
<path d="M80473 30639
L80474 30639
" />
<path d="M79331 28464
L79331 28464
" />
<path d="M79331 28464
L79331 28464
" />
<path d="M80474 30640
L80474 30640
" />
<path d="M79332 28464
L79331 28464
" />
<path d="M80397 30003
L80171 29411
" />
<path d="M77269 27043
L75209 25621
" />
<path d="M79331 28464
L79330 28464
" />
<path d="M79812 28890
L79332 28464
" />
<path d="M80171 29411
L79812 28890
" />
<path d="M80474 30640
L80475 30640
" />
<path d="M80475 30640
L80397 30003
" />
<path d="M80474 30639
L80474 30640
" />
<path d="M71087 22778
L71087 22778
" />
<path d="M73148 24199
L71087 22778
" />
<path d="M75209 25621
L73148 24199
" />
<path d="M79330 28464
L77269 27043
" />
</g> 
</svg>
