G04 #@! TF.GenerationSoftware,KiCad,Pcbnew,(5.0.0-rc2-dev-321-g78161b592)*
G04 #@! TF.CreationDate,2018-06-20T02:06:49-06:00*
G04 #@! TF.ProjectId,dragon,647261676F6E2E6B696361645F706362,1.0*
G04 #@! TF.SameCoordinates,Original*
G04 #@! TF.FileFunction,Profile,NP*
%FSLAX46Y46*%
G04 Gerber Fmt 4.6, Leading zero omitted, Abs format (unit mm)*
G04 Created by KiCad (PCBNEW (5.0.0-rc2-dev-321-g78161b592)) date 06/20/18 02:06:49*
%MOMM*%
%LPD*%
G01*
G04 APERTURE LIST*
%ADD10C,0.150000*%
%ADD11C,0.200000*%
G04 APERTURE END LIST*
D10*
X126000000Y-68500000D02*
X126000000Y-64500000D01*
X156000000Y-68500000D02*
X126000000Y-68500000D01*
X156000000Y-64500000D02*
X156000000Y-68500000D01*
X126000000Y-64500000D02*
X156000000Y-64500000D01*
X151000000Y-57300000D02*
G75*
G02X151000000Y-60100000I0J-1400000D01*
G01*
X131000000Y-60100000D02*
G75*
G02X131000000Y-57300000I0J1400000D01*
G01*
X131000000Y-60100000D02*
X151000000Y-60100000D01*
X131000000Y-57300000D02*
X151000000Y-57300000D01*
D11*
X141149424Y-154662586D02*
X144681170Y-154075487D01*
X137619000Y-154071629D02*
X141149424Y-154662586D01*
X134398139Y-152302944D02*
X137619000Y-154071629D01*
X134401667Y-152302944D02*
X134399903Y-152302944D01*
X161270104Y-140902930D02*
X174634208Y-129506444D01*
X134405195Y-152302062D02*
X134405195Y-152302944D01*
X81446195Y-106713472D02*
X94685945Y-118109958D01*
X134405195Y-152299416D02*
X134405195Y-152300298D01*
X147906000Y-152310000D02*
X147906000Y-152307354D01*
X147906000Y-152299416D02*
X161270104Y-140902930D01*
X134405195Y-152302944D02*
X134403431Y-152302944D01*
X94685945Y-118109958D02*
X107925695Y-129506444D01*
X107925695Y-129506444D02*
X121165445Y-140902930D01*
X134405195Y-152301180D02*
X134405195Y-152302062D01*
X134399903Y-152302944D02*
X134398139Y-152302944D01*
X81446195Y-106714354D02*
X81446195Y-106713472D01*
X134405195Y-152300298D02*
X134405195Y-152301180D01*
X147906000Y-152302062D02*
X147906000Y-152299416D01*
X134403431Y-152302944D02*
X134401667Y-152302944D01*
X147906000Y-152304708D02*
X147906000Y-152302062D01*
X147906000Y-152307354D02*
X147906000Y-152304708D01*
X121165445Y-140902930D02*
X134405195Y-152299416D01*
X144681170Y-154075487D02*
X147906000Y-152310000D01*
X204406889Y-100419916D02*
X204406007Y-100419034D01*
X204403361Y-77824500D02*
X204403361Y-77824500D01*
X204405125Y-100418152D02*
X204404243Y-100417270D01*
X204406007Y-100419034D02*
X204405125Y-100418152D01*
X203605642Y-103915062D02*
X204201561Y-102223382D01*
X174634208Y-129506444D02*
X187998313Y-118109958D01*
X201362417Y-106715236D02*
X201362417Y-106716118D01*
X201362417Y-106714354D02*
X201362417Y-106715236D01*
X204403361Y-89120444D02*
X204403361Y-83472472D01*
X204403361Y-94768416D02*
X204403361Y-89120444D01*
X204403361Y-83472472D02*
X204403361Y-77824500D01*
X201362417Y-106716118D02*
X201362417Y-106717000D01*
X204403361Y-100416389D02*
X204403361Y-94768416D01*
X202649229Y-105433440D02*
X203605642Y-103915062D01*
X204404243Y-100417270D02*
X204403361Y-100416389D01*
X201362417Y-106717000D02*
X202649229Y-105433440D01*
X204201561Y-102223382D02*
X204406889Y-100419916D01*
X201362417Y-106713472D02*
X201362417Y-106714354D01*
X187998313Y-118109958D02*
X201362417Y-106713472D01*
X141998736Y-54301277D02*
X128426493Y-54301277D01*
X108682403Y-55215413D02*
X105770774Y-56335758D01*
X180562088Y-57857222D02*
X180560875Y-57856836D01*
X180559662Y-57855789D02*
X180559111Y-57853750D01*
X172175127Y-54531410D02*
X169143222Y-54301277D01*
X180559111Y-57853750D02*
X177932019Y-56323852D01*
X180560875Y-57856836D02*
X180559662Y-57855789D01*
X114854250Y-54301277D02*
X111726324Y-54532292D01*
X169143222Y-54301277D02*
X155570979Y-54301277D01*
X81273333Y-72389076D02*
X81273333Y-72389958D01*
X103039722Y-57878444D02*
X97598125Y-61505882D01*
X155570979Y-54301277D02*
X141998736Y-54301277D01*
X175121042Y-55211003D02*
X172175127Y-54531410D01*
X81273333Y-72390840D02*
X81273333Y-72391722D01*
X81273333Y-72389958D02*
X81273333Y-72390840D01*
X81273333Y-72388194D02*
X81273333Y-72389076D01*
X86714931Y-68760757D02*
X81273333Y-72388194D01*
X111726324Y-54532292D02*
X108682403Y-55215413D01*
X177932019Y-56323852D02*
X175121042Y-55211003D01*
X92156528Y-65133319D02*
X86714931Y-68760757D01*
X97598125Y-61505882D02*
X92156528Y-65133319D01*
X105770774Y-56335758D02*
X103039722Y-57878444D01*
X128426493Y-54301277D02*
X114854250Y-54301277D01*
X81446195Y-106716118D02*
X81446195Y-106715236D01*
X81446195Y-106717000D02*
X81446195Y-106716118D01*
X79206056Y-103915062D02*
X80161422Y-105433440D01*
X78610523Y-102223382D02*
X79206056Y-103915062D01*
X81273333Y-72391722D02*
X80069149Y-73428392D01*
X78405250Y-100417270D02*
X78405250Y-100418152D01*
X78405250Y-83416909D02*
X78405250Y-89083402D01*
X78405250Y-100416389D02*
X78405250Y-100417270D01*
X78405250Y-77748652D02*
X78405250Y-77749534D01*
X78405250Y-77747770D02*
X78405250Y-77748652D01*
X80069149Y-73428392D02*
X79167250Y-74708149D01*
X80161422Y-105433440D02*
X81446195Y-106717000D01*
X78601372Y-76168484D02*
X78405250Y-77746889D01*
X78405250Y-100419916D02*
X78610523Y-102223382D01*
X78405250Y-100418152D02*
X78405250Y-100419034D01*
X78405250Y-89083402D02*
X78405250Y-94749895D01*
X78405250Y-77750416D02*
X78405250Y-83416909D01*
X78405250Y-77746889D02*
X78405250Y-77747770D01*
X79167250Y-74708149D02*
X78601372Y-76168484D01*
X78405250Y-77749534D02*
X78405250Y-77750416D01*
X78405250Y-94749895D02*
X78405250Y-100416389D01*
X78405250Y-100419034D02*
X78405250Y-100419916D01*
X81446195Y-106715236D02*
X81446195Y-106714354D01*
X204403361Y-77824500D02*
X204404243Y-77825382D01*
X201501764Y-72300000D02*
X201500882Y-72300000D01*
X201502646Y-72300000D02*
X201501764Y-72300000D01*
X204405125Y-77826264D02*
X204406007Y-77827145D01*
X201503528Y-72300000D02*
X201502646Y-72300000D01*
X204208727Y-76208722D02*
X203636510Y-74705503D01*
X196265660Y-68689319D02*
X191031320Y-65078639D01*
X201500882Y-72300000D02*
X201500000Y-72300000D01*
X202723643Y-73381539D02*
X201503528Y-72300000D01*
X203636510Y-74705503D02*
X202723643Y-73381539D01*
X204406007Y-77827145D02*
X204406889Y-77828027D01*
X204406889Y-77828027D02*
X204208727Y-76208722D01*
X204404243Y-77825382D02*
X204405125Y-77826264D01*
X180562639Y-57857277D02*
X180562088Y-57857222D01*
X185796979Y-61467958D02*
X180562639Y-57857277D01*
X191031320Y-65078639D02*
X185796979Y-61467958D01*
X201500000Y-72300000D02*
X196265660Y-68689319D01*
M02*
