M48
;DRILL file {KiCad (5.0.0-rc2-dev-321-g78161b592)} date 05/29/18 00:04:10
;FORMAT={3:3/ absolute / metric / suppress leading zeros}
FMAT,2
METRIC,TZ
T1C0.400
T2C0.800
T3C1.000
T4C1.016
T5C0.500
T6C0.900
T7C1.270
%
G90
G05
M71
T1
X81800Y-88100
X84400Y-84100
X84575Y-90250
X86275Y-87350
X86284Y-75428
X87150Y-92280
X88650Y-85175
X88800Y-82900
X89200Y-76825
X89970Y-92310
X91475Y-94575
X91900Y-88100
X93800Y-81700
X94400Y-98600
X94400Y-100700
X94400Y-103000
X95000Y-96000
X95700Y-80200
X96325Y-103325
X96500Y-79175
X97300Y-89400
X98500Y-85900
X98900Y-89800
X98900Y-92400
X100700Y-79500
X101125Y-97250
X101900Y-89200
X102350Y-77350
X102475Y-85500
X104000Y-88500
X104775Y-83250
X104975Y-96475
X106075Y-75450
X107400Y-83300
X107950Y-66725
X108475Y-69450
X108975Y-71175
X109225Y-68775
X109950Y-68075
X110050Y-71200
X110775Y-70450
X110975Y-72825
X111875Y-72000
X112800Y-76000
X115100Y-75750
X115975Y-70375
X116000Y-71950
X116625Y-71150
X116700Y-66100
X118200Y-97300
X118500Y-116400
X119050Y-87100
X120900Y-64600
X121000Y-97900
X123200Y-66000
X123375Y-71825
X123975Y-114750
X124075Y-71100
X124825Y-70425
X124900Y-112700
X126200Y-104400
X126425Y-84375
X131175Y-104375
X132510Y-103325
X132600Y-140100
X138600Y-104050
X140900Y-71950
X140900Y-119750
X142250Y-71325
X142250Y-119000
X143500Y-70500
X143500Y-117900
X147270Y-102600
X151200Y-112400
X153800Y-111700
X157250Y-87700
X157275Y-92725
X157275Y-97800
X157300Y-102725
X170100Y-103025
X174700Y-73500
X176300Y-72100
X177100Y-71300
X177700Y-94900
X177800Y-90200
X189050Y-88500
X189250Y-83850
T2
X103100Y-66150
X100500Y-63950
X95800Y-67150
X153640Y-130000
X97617Y-69750
X153630Y-133040
T3
X139730Y-145426
X139730Y-147966
X142270Y-145426
X142270Y-147966
X178235Y-65473
X179227Y-63135
X180573Y-66465
X181565Y-64127
T4
X117270Y-108070
X117270Y-125850
X119810Y-108070
X119810Y-125850
X122350Y-108070
X122350Y-125850
X124890Y-108070
X124890Y-125850
X127430Y-108070
X127430Y-125850
X129970Y-108070
X129970Y-125850
X132510Y-108070
X132510Y-125850
X135050Y-108070
X135050Y-125850
X147270Y-108070
X147270Y-125850
X149810Y-108070
X149810Y-125850
X152350Y-108070
X152350Y-125850
X154890Y-108070
X154890Y-125850
X157430Y-108070
X157430Y-125850
X159970Y-108070
X159970Y-125850
X162510Y-108070
X162510Y-125850
X165050Y-108070
X165050Y-125850
T5
X141400Y-131200
X144085Y-135850
X138715Y-132750
X138715Y-135850
X144085Y-132750
X141400Y-137400
T6
X82200Y-93900
X82200Y-100700
T7
X178312Y-61110
X138097Y-143920
T0
M30
